<svg width="1440" height="288" viewBox="0 0 1440 288" fill="none" xmlns="http://www.w3.org/2000/svg">
<path d="M1417.12 4.07404L1405.93 2M1417.12 4.07404H1383.95M1417.12 4.07404L1428.69 6.21658M1417.12 4.07404H1440.61M1405.93 2L1410 2.00081L1414.03 2.0053L1417.98 2.01793L1421.8 2.04279L1425.46 2.08315L1428.91 2.14389L1432.12 2.22827L1435.09 2.33588L1437.65 2.48468L1439.97 2.65711L1440.61 2.7175V4.07404M1405.93 2H1373.29M1373.29 2H1340.65M1373.29 2L1383.95 4.07404M1340.65 2H1308.01M1340.65 2L1350.77 4.07404M1308.01 2H1275.37M1308.01 2L1317.6 4.07404M1275.37 2H1242.73M1275.37 2L1284.43 4.07404M1242.73 2H1210.09M1242.73 2L1251.26 4.07404M1210.09 2H1177.45M1210.09 2L1218.09 4.07404M1177.45 2H1144.81M1177.45 2L1184.91 4.07404M1144.81 2H1112.17M1144.81 2L1151.74 4.07404M1112.17 2H1079.53M1112.17 2L1118.57 4.07404M1079.53 2H1046.89M1079.53 2L1085.4 4.07404M1046.89 2H1014.25M1046.89 2L1052.22 4.07404M1014.25 2H981.614M1014.25 2L1015.44 2.51239L1017.23 3.28813L1019.05 4.07404M981.614 2H948.975M981.614 2L982.667 2.51239L985.879 4.07404M948.975 2H916.336M948.975 2L952.706 4.07404M916.336 2H883.696M916.336 2L917.523 2.77001L918.725 3.54901L919.129 3.81112L919.535 4.07404M883.696 2H851.057M883.696 2L884.686 2.77001L885.019 3.02846L885.352 3.28813L886.362 4.07404M851.057 2H818.418M851.057 2L853.19 4.07404M818.418 2L818.615 2.25558L818.813 2.51239L819.814 3.81112L820.017 4.07404M818.418 2H785.779M785.779 2H753.139M785.779 2L786.845 4.07404M753.139 2H720.5M753.139 2L753.337 2.77001L753.672 4.07404M720.5 2H687.861M720.5 2V4.07404M687.861 2H655.221M687.861 2L687.663 2.77001L687.328 4.07404M655.221 2H622.582M655.221 2L654.155 4.07404M622.582 2L622.385 2.25558L622.188 2.51239L621.186 3.81112L620.983 4.07404M622.582 2H589.943M589.943 2H557.303M589.943 2L588.081 3.81112L587.81 4.07404M557.303 2H524.664M557.303 2L556.314 2.77001L555.981 3.02846L555.312 3.54901L554.976 3.81112L554.638 4.07404M524.664 2H492.025M524.664 2L523.477 2.77001L522.275 3.54901L521.871 3.81112L521.466 4.07404M492.025 2H459.386M492.025 2L488.294 4.07404M459.386 2H426.746M459.386 2L458.333 2.51239L455.121 4.07404M426.746 2H394.107M426.746 2L421.949 4.07404M394.107 2H361.468M394.107 2L388.777 4.07404M361.468 2H328.828M361.468 2L355.604 4.07404M328.828 2H296.189M328.828 2L322.432 4.07404M296.189 2H263.55M296.189 2L289.259 4.07404M263.55 2H230.911M263.55 2L256.087 4.07404M230.911 2H198.271M230.911 2L222.914 4.07404M198.271 2H165.632M198.271 2L189.742 4.07404M165.632 2H132.993M165.632 2L156.57 4.07404M132.993 2H100.353M132.993 2L123.397 4.07404M100.353 2H67.7138M100.353 2L90.2256 4.07404M67.7138 2H35.0747M67.7138 2L57.0531 4.07404M35.0747 2L31.0016 2.00081L26.9705 2.0053L23.0233 2.01793L19.2 2.04279L15.5424 2.08315L12.0896 2.14389L8.88289 2.22827L5.90642 2.33588L3.35227 2.48468L1.02691 2.65711L0.387815 2.71752V4.07404M35.0747 2L23.8807 4.07404M90.2256 4.07404H123.397M90.2256 4.07404H57.0531M90.2256 4.07404L79.7607 6.21658M123.397 4.07404L113.484 6.21658M123.397 4.07404H156.57M222.914 4.07404H256.087M222.914 4.07404H189.742M222.914 4.07404L220.875 4.60315L214.653 6.21658M256.087 4.07404L248.376 6.21658M256.087 4.07404H289.259M355.604 4.07404H388.777M355.604 4.07404H322.432M355.604 4.07404L354.108 4.60315L353.355 4.86894L349.545 6.21658M388.777 4.07404L388.098 4.33778L387.417 4.60315L383.269 6.21658M388.777 4.07404H421.949M488.294 4.07404L487.818 4.33778L484.438 6.21658M488.294 4.07404H521.466M488.294 4.07404H455.121M521.466 4.07404L520.65 4.60315L520.239 4.86894L519.827 5.13635L518.161 6.21658M521.466 4.07404H554.638M620.983 4.07404H654.155M620.983 4.07404H587.81M620.983 4.07404L619.331 6.21658M654.155 4.07404L654.019 4.33778L653.884 4.60315L653.746 4.86894L653.332 5.67402L653.054 6.21658M654.155 4.07404H687.328M753.672 4.07404H786.845M753.672 4.07404H720.5M753.672 4.07404L754.223 6.21658M786.845 4.07404L786.981 4.33778L787.116 4.60315L787.254 4.86894L787.946 6.21658M786.845 4.07404H820.017M886.362 4.07404H919.535M886.362 4.07404H853.19M886.362 4.07404L887.042 4.60315L888.419 5.67402L888.766 5.94469L889.116 6.21658M919.535 4.07404L920.35 4.60315L920.761 4.86894L921.173 5.13635L922.839 6.21658M919.535 4.07404H952.706M1019.05 4.07404H1052.22M1019.05 4.07404H985.879M1019.05 4.07404L1020.28 4.60315L1020.89 4.86894L1024.01 6.21658M1052.22 4.07404L1052.9 4.33778L1053.58 4.60315L1057.73 6.21658M1052.22 4.07404H1085.4M1151.74 4.07404H1184.91M1151.74 4.07404H1118.57M1151.74 4.07404L1153.51 4.60315L1154.4 4.86894L1158.9 6.21658M1184.91 4.07404L1192.62 6.21658M1184.91 4.07404H1218.09M1284.43 4.07404H1317.6M1284.43 4.07404H1251.26M1284.43 4.07404L1293.79 6.21658M1317.6 4.07404L1327.52 6.21658M1317.6 4.07404H1350.77M0.271548 23.4693H0.387815M33.66 23.4693L46.325 20.7321M33.66 23.4693L20.5097 26.3114M33.66 23.4693H71.8177M33.66 23.4693H0.387815M46.325 20.7321H8.87088M46.325 20.7321L58.5316 18.0938M46.325 20.7321H83.7791M8.87088 20.7321L21.7556 18.0938M8.87088 20.7321H0.387815M8.87088 20.7321L0.387815 22.4686M46.1735 13.0938H81.6645M46.1735 13.0938L57.7538 10.7226M46.1735 13.0938H10.6832M46.1735 13.0938L34.1813 15.5494M81.6645 13.0938L92.6357 10.7226M81.6645 13.0938L70.304 15.5494M81.6645 13.0938H117.156M57.7538 10.7226H92.6357M57.7538 10.7226L68.9432 8.43167M57.7538 10.7226H22.8726M92.6357 10.7226H127.517M92.6357 10.7226L103.236 8.43167M0.0225083 66.6746H0.387815M30.8118 66.6746L47.1434 62.1364M30.8118 66.6746L13.6686 71.4386M30.8118 66.6746H80.0757M30.8118 66.6746H0.387815M47.1434 62.1364L62.7195 57.8081M47.1434 62.1364H95.2401M47.1434 62.1364H0.387815M15.7352 57.8081H62.7195M15.7352 57.8081L31.6692 53.6755M15.7352 57.8081H0.387815M15.7352 57.8081L0.387815 61.7886M46.8981 49.7255H91.8046M46.8981 49.7255L61.4683 45.9468M46.8981 49.7255H1.99157M46.8981 49.7255L31.6692 53.6755M91.8046 49.7255L105.404 45.9468M91.8046 49.7255L77.5906 53.6755M91.8046 49.7255H136.712M61.4683 45.9468H105.404M61.4683 45.9468H17.5332M61.4683 45.9468L75.422 42.3278M105.404 45.9468L118.427 42.3278M105.404 45.9468H149.339M101.628 35.5309H142.886M101.628 35.5309L113.949 32.3354M101.628 35.5309H60.3702M101.628 35.5309L88.7966 38.8588M142.886 35.5309L154.385 32.3354M142.886 35.5309L130.91 38.8588M142.886 35.5309H184.145M113.949 32.3354H154.385M113.949 32.3354H73.5122M113.949 32.3354L125.789 29.2647M154.385 32.3354L165.436 29.2647M154.385 32.3354H194.823M148.133 23.4693H186.291M148.133 23.4693L158.687 20.7321M148.133 23.4693H109.975M148.133 23.4693L137.175 26.3114M186.291 23.4693L196.141 20.7321M186.291 23.4693L176.063 26.3114M186.291 23.4693H224.448M158.687 20.7321H196.141M158.687 20.7321H121.233M158.687 20.7321L168.86 18.0938M196.141 20.7321L205.636 18.0938M196.141 20.7321H233.595M188.137 13.0938H223.628M188.137 13.0938L197.279 10.7226M188.137 13.0938H152.647M188.137 13.0938L178.67 15.5494M223.628 13.0938L232.16 10.7226M223.628 13.0938L214.791 15.5494M223.628 13.0938H259.119M197.279 10.7226H232.16M197.279 10.7226L206.113 8.43167M197.279 10.7226H162.398M232.16 10.7226H267.042M232.16 10.7226L240.406 8.43167M25.627 145.354L48.6121 136.412M25.627 145.354L1.01266 154.93M25.627 145.354H95.1141M25.627 145.354H0.387815M48.6121 136.412L70.1262 128.042M48.6121 136.412H115.801M48.6121 136.412H0.387815M48.1455 112.814H109.269M48.1455 112.814L67.7873 105.867M48.1455 112.814L27.2848 120.192M48.1455 112.814H0.387815M109.269 112.814L127.125 105.867M109.269 112.814L90.3043 120.192M109.269 112.814H170.392M67.7873 105.867H127.125M67.7873 105.867H8.45007M67.7873 105.867L86.3145 99.3144M127.125 105.867L143.968 99.3144M127.125 105.867H186.463M120.382 87.2655H174.939M120.382 87.2655L136.079 81.7139M120.382 87.2655H65.8258M120.382 87.2655L103.818 93.124M174.939 87.2655L189.209 81.7139M174.939 87.2655L159.88 93.124M174.939 87.2655H229.495M136.079 81.7139H189.209M136.079 81.7139H82.9502M136.079 81.7139L150.976 76.4452M189.209 81.7139L202.751 76.4452M189.209 81.7139H242.337M178.602 66.6746H227.866M178.602 66.6746L191.434 62.1364M178.602 66.6746H129.339M178.602 66.6746L165.133 71.4386M227.866 66.6746L239.531 62.1364M227.866 66.6746L215.62 71.4386M227.866 66.6746H277.129M191.434 62.1364H239.531M191.434 62.1364H143.338M191.434 62.1364L203.672 57.8081M239.531 62.1364L250.657 57.8081M239.531 62.1364H287.628M226.526 49.7255H271.432M226.526 49.7255L237.21 45.9468M226.526 49.7255H181.618M226.526 49.7255L215.357 53.6755M271.432 49.7255L281.146 45.9468M271.432 49.7255L261.279 53.6755M271.432 49.7255H316.339M237.21 45.9468H281.146M237.21 45.9468H193.275M237.21 45.9468L247.443 42.3278M281.146 45.9468L290.448 42.3278M281.146 45.9468H325.081M266.661 35.5309H307.918M266.661 35.5309L275.696 32.3354M266.661 35.5309H225.403M266.661 35.5309L257.251 38.8588M307.918 35.5309L308.964 35.1244L316.132 32.3354M307.918 35.5309L299.365 38.8588M307.918 35.5309H349.177M275.696 32.3354H316.132M275.696 32.3354H235.259M275.696 32.3354L284.378 29.2647M316.132 32.3354L324.026 29.2647M316.132 32.3354H356.57M300.764 23.4693H338.922M300.764 23.4693L308.504 20.7321M300.764 23.4693H262.606M300.764 23.4693L292.728 26.3114M338.922 23.4693L345.958 20.7321M338.922 23.4693L336.215 24.5227L331.616 26.3114M338.922 23.4693H377.08M308.504 20.7321H345.958M308.504 20.7321H271.05M308.504 20.7321L315.963 18.0938M345.958 20.7321L352.739 18.0938M345.958 20.7321H383.412M330.1 13.0938H365.591M330.1 13.0938L336.805 10.7226M330.1 13.0938H294.61M330.1 13.0938L323.158 15.5494M365.591 13.0938L370.183 11.3079L370.936 11.0144L371.687 10.7226M365.591 13.0938L359.28 15.5494M365.591 13.0938H401.082M336.805 10.7226H371.687M336.805 10.7226L343.283 8.43167M336.805 10.7226H301.924M371.687 10.7226H406.568M371.687 10.7226L377.575 8.43167M50.8032 247.219H146.475M50.8032 247.219L80.9279 230.476M50.8032 247.219L17.7005 265.617M50.8032 247.219L0.387815 247.219M146.475 247.219L172.296 230.476M146.475 247.219L118.101 265.617M146.475 247.219H242.145M80.9279 230.476H172.296M80.9279 230.476L108.459 215.175M80.9279 230.476H0.387815M172.296 230.476L195.894 215.175M172.296 230.476H263.663M156.975 188.212H237.479M156.975 188.212L178.458 176.272M156.975 188.212H76.4714M156.975 188.212L133.718 201.137M237.479 188.212L255.893 176.272M237.479 188.212L217.544 201.137M237.479 188.212H317.982M178.458 176.272H255.893M178.458 176.272H101.023M178.458 176.272L198.364 165.209M255.893 176.272L272.955 165.209M255.893 176.272H333.327M234.089 145.354H303.576M234.089 145.354L250.179 136.412M234.089 145.354H164.601M234.089 145.354L216.859 154.93M303.576 145.354L317.368 136.412M303.576 145.354L288.808 154.93M303.576 145.354H373.063M250.179 136.412H317.368M250.179 136.412H182.99M250.179 136.412L265.238 128.042M317.368 136.412L330.276 128.042M317.368 136.412H384.556M292.638 112.814H353.761M292.638 112.814L305.138 105.867M292.638 112.814H231.515M292.638 112.814L279.363 120.192M353.761 112.814L364.475 105.867M353.761 112.814L342.383 120.192M353.761 112.814H414.884M305.138 105.867H364.475M305.138 105.867H245.8M305.138 105.867L316.927 99.3144M364.475 105.867L374.581 99.3144M364.475 105.867H423.812M338.607 87.2655H393.163M338.607 87.2655L348.596 81.7139M338.607 87.2655H284.051M338.607 87.2655L328.066 93.124M393.163 87.2655L401.725 81.7139M393.163 87.2655L384.128 93.124M393.163 87.2655H447.719M348.596 81.7139H401.725M348.596 81.7139H295.467M348.596 81.7139L358.076 76.4452M401.725 81.7139L409.85 76.4452M401.725 81.7139H454.854M375.656 66.6746H424.919M375.656 66.6746L383.822 62.1364M375.656 66.6746H326.392M375.656 66.6746L367.085 71.4386M424.919 66.6746L431.919 62.1364M424.919 66.6746L417.572 71.4386M424.919 66.6746H474.183M383.822 62.1364H431.919M383.822 62.1364H335.725M383.822 62.1364L391.61 57.8081M431.919 62.1364L438.594 57.8081M431.919 62.1364H480.016M406.152 49.7255H451.06M406.152 49.7255L412.952 45.9468M406.152 49.7255H361.246M406.152 49.7255L399.046 53.6755M451.06 49.7255L456.887 45.9468M451.06 49.7255L444.968 53.6755M451.06 49.7255H495.966M412.952 45.9468H456.887M412.952 45.9468H369.016M412.952 45.9468L419.464 42.3278M456.887 45.9468L462.469 42.3278M456.887 45.9468H500.823M431.693 35.5309H472.952M431.693 35.5309L437.443 32.3354M431.693 35.5309H390.435M431.693 35.5309L425.705 38.8588M472.952 35.5309L472.321 35.9393L467.819 38.8588M472.952 35.5309L477.879 32.3354M472.952 35.5309H514.21M437.443 32.3354H477.879M437.443 32.3354H397.006M437.443 32.3354L442.968 29.2647M477.879 32.3354L482.615 29.2647M477.879 32.3354H518.317M453.395 23.4693H491.553M453.395 23.4693L458.321 20.7321M453.395 23.4693H415.238M453.395 23.4693L448.282 26.3114M491.553 23.4693L495.775 20.7321M491.553 23.4693L489.929 24.5227L488.833 25.2332L487.17 26.3114M491.553 23.4693H529.711M458.321 20.7321H495.775M458.321 20.7321H420.867M458.321 20.7321L463.067 18.0938M495.775 20.7321L497.319 19.7313L498.336 19.0718L499.844 18.0938M495.775 20.7321H533.229M472.064 13.0938H507.555M472.064 13.0938L475.278 11.3079L476.33 10.7226M472.064 13.0938H436.573M472.064 13.0938L468.206 15.2376L467.646 15.5494M507.555 13.0938L510.31 11.3079L510.761 11.0144L511.212 10.7226M507.555 13.0938L505.678 14.3106L503.768 15.5494M507.555 13.0938H543.046M476.33 10.7226H511.212M476.33 10.7226L480.453 8.43167M476.33 10.7226H441.449M511.212 10.7226H546.093M511.212 10.7226L514.745 8.43167M433.487 247.219H529.158M433.487 247.219L446.398 230.476M433.487 247.219H337.817M433.487 247.219L419.3 265.617M529.158 247.219L537.766 230.476M529.158 247.219L519.701 265.617M529.158 247.219H624.829M446.398 230.476H537.766M446.398 230.476H355.03M446.398 230.476L458.197 215.175M537.766 230.476L545.631 215.175M537.766 230.476H629.133M478.989 188.212H559.493M478.989 188.212L488.196 176.272M478.989 188.212H398.485M478.989 188.212L469.022 201.137M559.493 188.212L565.631 176.272M559.493 188.212L552.848 201.137M559.493 188.212H639.997M488.196 176.272H565.631M488.196 176.272H410.762M488.196 176.272L496.727 165.209M565.631 176.272L571.318 165.209M565.631 176.272H643.065M512.038 145.354H581.525M512.038 145.354L518.934 136.412M512.038 145.354H442.551M512.038 145.354L504.654 154.93M581.525 145.354L586.123 136.412M581.525 145.354L576.603 154.93M581.525 145.354H651.013M518.934 136.412H586.123M518.934 136.412H451.745M518.934 136.412L525.388 128.042M586.123 136.412L590.425 128.042M586.123 136.412H653.311M537.131 112.814H598.254M537.131 112.814L542.488 105.867M537.131 112.814H476.008M537.131 112.814L531.441 120.192M598.254 112.814L601.825 105.867M598.254 112.814L594.461 120.192M598.254 112.814H659.377M542.488 105.867H601.825M542.488 105.867H483.15M542.488 105.867L547.54 99.3144M601.825 105.867L605.194 99.3144M601.825 105.867H661.163M556.831 87.2655H611.388M556.831 87.2655L561.112 81.7139M556.831 87.2655H502.275M556.831 87.2655L552.314 93.124M611.388 87.2655L614.241 81.7139M611.388 87.2655L608.376 93.124M611.388 87.2655H665.944M561.112 81.7139H614.241M561.112 81.7139H507.984M561.112 81.7139L565.176 76.4452M614.241 81.7139L616.95 76.4452M614.241 81.7139H667.371M572.71 66.6746H621.973M572.71 66.6746L576.209 62.1364M572.71 66.6746H523.447M572.71 66.6746L569.036 71.4386M621.973 66.6746L624.307 62.1364M621.973 66.6746L619.524 71.4386M621.973 66.6746H671.237M576.209 62.1364H624.307M576.209 62.1364H528.112M576.209 62.1364L577.48 60.4896L579.547 57.8081M624.307 62.1364L626.531 57.8081M624.307 62.1364H672.403M585.78 49.7255H630.686M585.78 49.7255L588.694 45.9468M585.78 49.7255H540.873M585.78 49.7255L583.508 52.6715L582.734 53.6755M630.686 49.7255L631.425 48.289L632.629 45.9468M630.686 49.7255L628.656 53.6755M630.686 49.7255H675.594M588.694 45.9468L589.049 45.4857L591.484 42.3278M588.694 45.9468H632.629M588.694 45.9468H544.758M632.629 45.9468L633.336 44.5714L633.569 44.1177L633.802 43.6669L634.489 42.3278M632.629 45.9468H676.565M596.725 35.5309H637.983M596.725 35.5309L597.97 33.917L598.278 33.5188L598.583 33.1221L598.887 32.728L599.19 32.3354M596.725 35.5309H555.468M596.725 35.5309L594.159 38.8588M637.983 35.5309L639.222 33.1221L639.425 32.728L639.626 32.3354M637.983 35.5309L636.273 38.8588M637.983 35.5309H679.242M599.19 32.3354H639.626M599.19 32.3354H558.753M599.19 32.3354L600.681 30.402L600.974 30.0209L601.558 29.2647M639.626 32.3354L640.62 30.402L640.817 30.0209L641.011 29.6418L641.205 29.2647M639.626 32.3354H680.063M606.027 23.4693H644.185M606.027 23.4693L608.138 20.7321M606.027 23.4693H567.869M606.027 23.4693L605.486 24.1697L604.666 25.2332L603.835 26.3114M644.185 23.4693L644.005 23.8187L642.909 25.9502L642.723 26.3114M644.185 23.4693L645.592 20.7321M644.185 23.4693H682.342M608.138 20.7321H645.592M608.138 20.7321H570.684M608.138 20.7321L610.172 18.0938M645.592 20.7321L646.106 19.7313L646.276 19.4007L646.445 19.0718L646.948 18.0938M645.592 20.7321H683.046M614.028 13.0938H649.518M614.028 13.0938L615.405 11.3079L615.856 10.7226M614.028 13.0938H578.537M614.028 13.0938L613.325 14.0044L613.089 14.3106L612.852 14.6183L612.134 15.5494M649.518 13.0938L649.673 12.793L649.98 12.195L650.285 11.6023L650.737 10.7226M649.518 13.0938L648.892 14.3106L648.735 14.6183L648.416 15.2376L648.256 15.5494M649.518 13.0938H685.009M615.856 10.7226H650.737M615.856 10.7226L617.405 8.71376L617.623 8.43167M615.856 10.7226H580.975M650.737 10.7226L650.887 10.4319L651.035 10.1425L651.184 9.85431L651.331 9.56734L651.77 8.71376L651.915 8.43167M650.737 10.7226H685.619M816.171 247.219H911.842M816.171 247.219L811.867 230.476M816.171 247.219H720.5M816.171 247.219L820.9 265.617M911.842 247.219L903.235 230.476M911.842 247.219L921.3 265.617M911.842 247.219H1007.51M811.867 230.476H903.235M811.867 230.476H720.5M811.867 230.476L807.934 215.175M903.235 230.476L895.369 215.175M903.235 230.476H994.602M801.003 188.212H881.507M801.003 188.212L797.935 176.272M801.003 188.212H720.5M801.003 188.212L804.326 201.137M881.507 188.212L875.369 176.272M881.507 188.212L888.152 201.137M881.507 188.212H962.011M797.935 176.272H875.369M797.935 176.272H720.5M797.935 176.272L795.091 165.209M875.369 176.272L869.682 165.209M875.369 176.272H952.804M789.987 145.354H859.475M789.987 145.354L787.689 136.412M789.987 145.354H720.5M789.987 145.354L792.449 154.93M859.475 145.354L854.877 136.412M859.475 145.354L864.397 154.93M859.475 145.354H928.962M787.689 136.412H854.877M787.689 136.412H720.5M787.689 136.412L785.537 128.042M854.877 136.412L850.575 128.042M854.877 136.412H922.066M781.623 112.814H842.747M781.623 112.814L779.837 105.867M781.623 112.814H720.5M781.623 112.814L783.52 120.192M842.747 112.814L839.175 105.867M842.747 112.814L846.539 120.192M842.747 112.814H903.869M779.837 105.867H839.175M779.837 105.867H720.5M779.837 105.867L778.153 99.3144M839.175 105.867L835.806 99.3144M839.175 105.867H898.512M775.056 87.2655H829.612M775.056 87.2655L773.629 81.7139M775.056 87.2655H720.5M775.056 87.2655L776.562 93.124M829.612 87.2655L826.759 81.7139M829.612 87.2655L832.624 93.124M829.612 87.2655H884.169M773.629 81.7139H826.759M773.629 81.7139H720.5M773.629 81.7139L772.275 76.4452M826.759 81.7139L824.05 76.4452M826.759 81.7139H879.888M769.763 66.6746H819.027M769.763 66.6746L768.597 62.1364M769.763 66.6746H720.5M769.763 66.6746L770.988 71.4386M819.027 66.6746L816.694 62.1364M819.027 66.6746L821.476 71.4386M819.027 66.6746H868.29M768.597 62.1364H816.694M768.597 62.1364H720.5M768.597 62.1364L767.484 57.8081M816.694 62.1364L814.469 57.8081M816.694 62.1364H864.791M765.407 49.7255H810.314M765.407 49.7255L764.435 45.9468M765.407 49.7255H720.5M765.407 49.7255L766.422 53.6755M810.314 49.7255L808.609 46.4102L808.371 45.9468M810.314 49.7255L812.344 53.6755M810.314 49.7255H855.22M764.435 45.9468L764.317 45.4857L763.505 42.3278M764.435 45.9468H808.371M764.435 45.9468H720.5M808.371 45.9468L807.664 44.5714L807.431 44.1177L807.198 43.6669L806.511 42.3278M808.371 45.9468H852.306M761.758 35.5309H803.017M761.758 35.5309L760.937 32.3354M761.758 35.5309H720.5M761.758 35.5309L762.075 36.7627L762.182 37.1777L762.288 37.5947L762.504 38.4353L762.614 38.8588M803.017 35.5309L801.778 33.1221L801.373 32.3354M803.017 35.5309L804.727 38.8588M803.017 35.5309H844.274M760.937 32.3354H801.373M760.937 32.3354H720.5M760.937 32.3354L760.147 29.2647M801.373 32.3354L800.38 30.402L800.183 30.0209L799.989 29.6418L799.795 29.2647M801.373 32.3354H841.81M758.658 23.4693H796.815M758.658 23.4693L757.954 20.7321M758.658 23.4693H720.5M758.658 23.4693L759.388 26.3114M796.815 23.4693L796.995 23.8187L798.091 25.9502L798.277 26.3114M796.815 23.4693L795.408 20.7321M796.815 23.4693H834.973M757.954 20.7321H795.408M757.954 20.7321H720.5M757.954 20.7321L757.276 18.0938M795.408 20.7321L794.894 19.7313L794.724 19.4007L794.555 19.0718L794.052 18.0938M795.408 20.7321H832.862M755.991 13.0938H791.482M755.991 13.0938L755.381 10.7226M755.991 13.0938H720.5M755.991 13.0938L756.622 15.5494M791.482 13.0938L791.327 12.793L791.019 12.195L790.867 11.8978L790.563 11.3079L790.413 11.0144L790.262 10.7226M791.482 13.0938L792.108 14.3106L792.265 14.6183L792.584 15.2376L792.744 15.5494M791.482 13.0938H826.972M755.381 10.7226L755.307 10.4319L755.232 10.1425L755.158 9.85431L754.792 8.43167M755.381 10.7226H790.262M755.381 10.7226H720.5M790.262 10.7226H825.144M790.262 10.7226L789.965 10.1425L789.816 9.85431L789.669 9.56734L789.23 8.71376L789.085 8.43167M1198.85 247.219H1294.53M1198.85 247.219L1177.34 230.476M1198.85 247.219H1103.18M1198.85 247.219L1222.5 265.617M1294.53 247.219L1268.7 230.476M1294.53 247.219L1322.9 265.617M1294.53 247.219H1390.2M1177.34 230.476H1268.7M1177.34 230.476H1085.97M1177.34 230.476L1157.67 215.175M1268.7 230.476L1245.11 215.175M1268.7 230.476H1360.07M1123.02 188.212H1203.52M1123.02 188.212L1107.67 176.272M1123.02 188.212H1042.51M1123.02 188.212L1139.63 201.137M1203.52 188.212L1185.11 176.272M1203.52 188.212L1223.46 201.137M1203.52 188.212H1284.03M1107.67 176.272H1185.11M1107.67 176.272H1030.24M1107.67 176.272L1093.45 165.209M1185.11 176.272L1168.05 165.209M1185.11 176.272H1262.54M1067.94 145.354H1137.42M1067.94 145.354L1056.44 136.412M1067.94 145.354H998.449M1067.94 145.354L1080.24 154.93M1137.42 145.354L1123.63 136.412M1137.42 145.354L1152.19 154.93M1137.42 145.354H1206.91M1056.44 136.412H1123.63M1056.44 136.412H989.255M1056.44 136.412L1045.69 128.042M1123.63 136.412L1110.72 128.042M1123.63 136.412H1190.82M1026.12 112.814H1087.24M1026.12 112.814L1017.19 105.867M1026.12 112.814H964.992M1026.12 112.814L1035.6 120.192M1087.24 112.814L1076.52 105.867M1087.24 112.814L1098.62 120.192M1087.24 112.814H1148.36M1017.19 105.867H1076.52M1017.19 105.867H957.85M1017.19 105.867L1008.77 99.3144M1076.52 105.867L1066.42 99.3144M1076.52 105.867H1135.86M993.281 87.2655H1047.84M993.281 87.2655L986.146 81.7139M993.281 87.2655H938.725M993.281 87.2655L1000.81 93.124M1047.84 87.2655L1039.27 81.7139M1047.84 87.2655L1056.87 93.124M1047.84 87.2655H1102.39M986.146 81.7139H1039.27M986.146 81.7139H933.016M986.146 81.7139L979.374 76.4452M1039.27 81.7139L1031.15 76.4452M1039.27 81.7139H1092.4M966.817 66.6746H1016.08M966.817 66.6746L960.984 62.1364M966.817 66.6746H917.553M966.817 66.6746L972.94 71.4386M1016.08 66.6746L1009.08 62.1364M1016.08 66.6746L1023.43 71.4386M1016.08 66.6746H1065.34M960.984 62.1364H1009.08M960.984 62.1364H912.888M960.984 62.1364L955.422 57.8081M1009.08 62.1364L1002.41 57.8081M1009.08 62.1364H1057.18M945.034 49.7255L945.656 50.2098L946.282 50.6965L950.11 53.6755M945.034 49.7255H989.94M945.034 49.7255L940.177 45.9468M945.034 49.7255H900.127M989.94 49.7255L984.113 45.9468M989.94 49.7255L996.032 53.6755M989.94 49.7255H1034.85M940.177 45.9468H984.113M940.177 45.9468H896.242M940.177 45.9468L935.526 42.3278M984.113 45.9468L978.531 42.3278M984.113 45.9468H1028.05M926.79 35.5309H968.049M926.79 35.5309L922.684 32.3354M926.79 35.5309H885.532M926.79 35.5309L931.068 38.8588M968.049 35.5309L964.945 33.5188L963.121 32.3354M968.049 35.5309L973.181 38.8588M968.049 35.5309H1009.31M922.684 32.3354H963.121M922.684 32.3354H882.247M922.684 32.3354L919.222 29.6418L918.737 29.2647M963.121 32.3354L958.385 29.2647M963.121 32.3354H1003.56M911.289 23.4693H949.447M911.289 23.4693L910.397 22.7751L907.771 20.7321M911.289 23.4693H873.132M911.289 23.4693L912.189 24.1697L914.016 25.5907L914.942 26.3114M949.447 23.4693L945.225 20.7321M949.447 23.4693L951.071 24.5227L952.167 25.2332L953.83 26.3114M949.447 23.4693H987.605M907.771 20.7321H945.225M907.771 20.7321H870.316M907.771 20.7321L905.216 18.744L904.38 18.0938M945.225 20.7321L943.682 19.7313L942.664 19.0718L941.156 18.0938M945.225 20.7321H982.679M897.954 13.0938H933.445M897.954 13.0938L896.037 11.6023L894.907 10.7226M897.954 13.0938H862.463M897.954 13.0938L901.11 15.5494M933.445 13.0938L930.69 11.3079L930.239 11.0144L929.788 10.7226M933.445 13.0938L935.322 14.3106L937.232 15.5494M933.445 13.0938H968.936M894.907 10.7226H929.788M894.907 10.7226L893.422 9.56734L892.689 8.99705L892.325 8.71376L891.963 8.43167M894.907 10.7226H860.026M929.788 10.7226H964.67M929.788 10.7226L926.255 8.43167M1417.41 176.272H1339.98M1417.41 176.272L1391.82 165.209M1417.41 176.272H1440.61M1417.41 176.272L1440.61 186.301M1345.89 145.354H1415.37M1345.89 145.354L1325.2 136.412M1345.89 145.354H1276.4M1345.89 145.354L1368.04 154.93M1415.37 145.354L1392.39 136.412M1415.37 145.354L1439.99 154.93M1415.37 145.354H1440.61M1325.2 136.412H1392.39M1325.2 136.412H1258.01M1325.2 136.412L1305.84 128.042M1392.39 136.412L1370.87 128.042M1392.39 136.412H1440.61M1270.61 112.814H1331.73M1270.61 112.814L1254.54 105.867M1270.61 112.814H1209.48M1270.61 112.814L1287.68 120.192M1331.73 112.814L1313.88 105.867M1331.73 112.814L1350.7 120.192M1331.73 112.814H1392.85M1254.54 105.867H1313.88M1254.54 105.867H1195.2M1254.54 105.867L1239.38 99.3144M1313.88 105.867L1297.03 99.3144M1313.88 105.867H1373.21M1211.51 87.2655H1266.06M1211.51 87.2655L1198.66 81.7139M1211.51 87.2655H1156.95M1211.51 87.2655L1225.06 93.124M1266.06 87.2655L1251.79 81.7139M1266.06 87.2655L1281.12 93.124M1266.06 87.2655H1320.62M1198.66 81.7139H1251.79M1198.66 81.7139H1145.53M1198.66 81.7139L1186.47 76.4452M1251.79 81.7139L1238.25 76.4452M1251.79 81.7139H1304.92M1163.87 66.6746H1213.13M1163.87 66.6746L1153.37 62.1364M1163.87 66.6746H1114.61M1163.87 66.6746L1174.89 71.4386M1213.13 66.6746L1201.47 62.1364M1213.13 66.6746L1225.38 71.4386M1213.13 66.6746H1262.4M1153.37 62.1364H1201.47M1153.37 62.1364H1105.28M1153.37 62.1364L1143.36 57.8081M1201.47 62.1364L1190.34 57.8081M1201.47 62.1364H1249.57M1124.66 49.7255H1169.57M1124.66 49.7255L1115.92 45.9468M1124.66 49.7255H1079.75M1124.66 49.7255L1133.8 53.6755M1169.57 49.7255L1159.85 45.9468M1169.57 49.7255L1179.72 53.6755M1169.57 49.7255H1214.47M1115.92 45.9468H1159.85M1115.92 45.9468H1071.98M1115.92 45.9468L1107.55 42.3278M1159.85 45.9468L1150.55 42.3278M1159.85 45.9468H1203.79M1091.82 35.5309H1133.08M1091.82 35.5309L1084.43 32.3354M1091.82 35.5309H1050.56M1091.82 35.5309L1099.52 38.8588M1133.08 35.5309L1124.87 32.3354M1133.08 35.5309L1141.64 38.8588M1133.08 35.5309H1174.34M1084.43 32.3354H1124.87M1084.43 32.3354H1043.99M1084.43 32.3354L1077.33 29.2647M1124.87 32.3354L1116.97 29.2647M1124.87 32.3354H1165.3M1063.92 23.4693H1102.08M1063.92 23.4693L1057.59 20.7321M1063.92 23.4693H1025.76M1063.92 23.4693L1065.54 24.1697L1066.36 24.5227L1070.5 26.3114M1102.08 23.4693L1095.04 20.7321M1102.08 23.4693L1109.38 26.3114M1102.08 23.4693H1140.24M1057.59 20.7321H1095.04M1057.59 20.7321H1020.13M1057.59 20.7321L1051.48 18.0938M1095.04 20.7321L1088.26 18.0938M1095.04 20.7321H1132.5M1039.92 13.0938H1075.41M1039.92 13.0938L1034.43 10.7226M1039.92 13.0938H1004.43M1039.92 13.0938L1045.6 15.5494M1075.41 13.0938L1070.82 11.3079L1070.06 11.0144L1069.31 10.7226M1075.41 13.0938L1081.72 15.5494M1075.41 13.0938H1110.9M1034.43 10.7226H1069.31M1034.43 10.7226L1029.79 8.71376L1029.13 8.43167M1034.43 10.7226H999.551M1069.31 10.7226H1104.2M1069.31 10.7226L1063.42 8.43167M1429.73 87.2655L1411.18 81.7139M1429.73 87.2655H1375.17M1429.73 87.2655L1440.61 90.5221M1429.73 87.2655H1440.61M1411.18 81.7139H1358.05M1411.18 81.7139L1393.57 76.4452M1411.18 81.7139H1440.61M1360.92 66.6746H1410.19M1360.92 66.6746L1345.76 62.1364M1360.92 66.6746H1311.66M1360.92 66.6746L1376.84 71.4386M1410.19 66.6746L1393.86 62.1364M1410.19 66.6746L1427.33 71.4386M1410.19 66.6746H1440.61M1345.76 62.1364H1393.86M1345.76 62.1364H1297.66M1345.76 62.1364L1331.3 57.8081M1393.86 62.1364L1378.28 57.8081M1393.86 62.1364H1440.61M1304.29 49.7255H1349.2M1304.29 49.7255L1291.66 45.9468M1304.29 49.7255H1259.38M1304.29 49.7255L1317.49 53.6755M1349.2 49.7255L1335.6 45.9468M1349.2 49.7255L1363.41 53.6755M1349.2 49.7255H1394.1M1291.66 45.9468H1335.6M1291.66 45.9468H1247.72M1291.66 45.9468L1279.57 42.3278M1335.6 45.9468L1322.57 42.3278M1335.6 45.9468H1379.53M1256.86 35.5309H1298.11M1256.86 35.5309L1246.18 32.3354M1256.86 35.5309H1215.6M1256.86 35.5309L1267.98 38.8588M1298.11 35.5309L1286.61 32.3354M1298.11 35.5309L1310.09 38.8588M1298.11 35.5309H1339.37M1246.18 32.3354H1286.61M1246.18 32.3354H1205.74M1246.18 32.3354L1235.92 29.2647M1286.61 32.3354L1275.56 29.2647M1286.61 32.3354H1327.05M1216.55 23.4693H1254.71M1216.55 23.4693L1207.4 20.7321M1216.55 23.4693H1178.39M1216.55 23.4693L1226.05 26.3114M1254.71 23.4693L1244.86 20.7321M1254.71 23.4693L1264.94 26.3114M1254.71 23.4693H1292.87M1207.4 20.7321H1244.86M1207.4 20.7321H1169.95M1207.4 20.7321L1198.59 18.0938M1244.86 20.7321L1235.36 18.0938M1244.86 20.7321H1282.31M1181.88 13.0938H1217.37M1181.88 13.0938L1173.96 10.7226M1181.88 13.0938H1146.39M1181.88 13.0938L1190.09 15.5494M1217.37 13.0938L1208.84 10.7226M1217.37 13.0938L1226.21 15.5494M1217.37 13.0938H1252.86M1173.96 10.7226H1208.84M1173.96 10.7226L1166.3 8.43167M1173.96 10.7226H1139.08M1208.84 10.7226H1243.72M1208.84 10.7226L1200.59 8.43167M1421.89 35.5309L1407.92 32.3354M1421.89 35.5309H1380.63M1421.89 35.5309L1436.43 38.8588M1421.89 35.5309H1440.61M1407.92 32.3354H1367.49M1407.92 32.3354L1394.51 29.2647M1407.92 32.3354H1440.61M1369.18 23.4693H1407.34M1369.18 23.4693L1357.22 20.7321M1369.18 23.4693H1331.02M1369.18 23.4693L1381.6 26.3114M1407.34 23.4693L1394.68 20.7321M1407.34 23.4693L1420.49 26.3114M1407.34 23.4693H1440.61M1357.22 20.7321H1394.68M1357.22 20.7321H1319.77M1357.22 20.7321L1345.69 18.0938M1394.68 20.7321L1382.47 18.0938M1394.68 20.7321H1432.13M1323.84 13.0938H1359.34M1323.84 13.0938L1313.48 10.7226M1323.84 13.0938H1288.35M1323.84 13.0938L1334.57 15.5494M1359.34 13.0938L1348.36 10.7226M1359.34 13.0938L1370.7 15.5494M1359.34 13.0938H1394.83M1313.48 10.7226H1348.36M1313.48 10.7226L1303.47 8.43167M1313.48 10.7226H1278.6M1348.36 10.7226H1383.25M1348.36 10.7226L1337.76 8.43167M1370.7 15.5494L1382.47 18.0938M1370.7 15.5494H1406.82M1370.7 15.5494H1334.57M1394.83 13.0938L1383.25 10.7226M1394.83 13.0938L1406.82 15.5494M1394.83 13.0938H1430.32M1383.25 10.7226H1418.13M1383.25 10.7226L1372.06 8.43167M1337.76 8.43167H1303.47M1337.76 8.43167H1372.06M1337.76 8.43167L1327.52 6.21658M1406.82 15.5494L1419.25 18.0938M1406.82 15.5494H1440.61M1430.32 13.0938L1418.13 10.7226M1430.32 13.0938L1440.61 15.0963M1430.32 13.0938H1440.61M1418.13 10.7226L1406.35 8.43167M1418.13 10.7226H1440.61M1372.06 8.43167H1406.35M1372.06 8.43167L1361.24 6.21658M1406.35 8.43167L1394.96 6.21658M1406.35 8.43167H1440.61M1382.47 18.0938H1419.25M1382.47 18.0938H1345.69M1432.13 20.7321L1419.25 18.0938M1432.13 20.7321L1440.61 22.4686M1432.13 20.7321H1440.61M1419.25 18.0938H1440.61M1345.69 18.0938H1308.92M1345.69 18.0938L1334.57 15.5494M1334.57 15.5494H1298.45M1420.49 26.3114L1434.15 29.2647M1420.49 26.3114H1381.6M1420.49 26.3114H1440.61M1440.73 23.4693H1440.61M1434.15 29.2647H1394.51M1434.15 29.2647L1440.61 30.6604M1434.15 29.2647H1440.61M1394.51 29.2647H1354.86M1394.51 29.2647L1381.6 26.3114M1381.6 26.3114H1342.71M1226.21 15.5494L1235.36 18.0938M1226.21 15.5494H1262.33M1226.21 15.5494H1190.09M1252.86 13.0938L1243.72 10.7226M1252.86 13.0938L1262.33 15.5494M1252.86 13.0938H1288.35M1243.72 10.7226H1278.6M1243.72 10.7226L1234.89 8.43167M1200.59 8.43167H1234.89M1200.59 8.43167L1192.62 6.21658M1200.59 8.43167H1166.3M1262.33 15.5494L1272.14 18.0938M1262.33 15.5494H1298.45M1288.35 13.0938L1278.6 10.7226M1288.35 13.0938L1298.45 15.5494M1278.6 10.7226L1269.18 8.43167M1234.89 8.43167H1269.18M1234.89 8.43167L1226.35 6.21658M1298.45 15.5494L1308.92 18.0938M1303.47 8.43167H1269.18M1303.47 8.43167L1293.79 6.21658M1269.18 8.43167L1260.07 6.21658M1235.36 18.0938H1272.14M1235.36 18.0938H1198.59M1282.31 20.7321L1272.14 18.0938M1282.31 20.7321L1292.87 23.4693M1282.31 20.7321H1319.77M1272.14 18.0938H1308.92M1198.59 18.0938H1161.81M1198.59 18.0938L1190.09 15.5494M1308.92 18.0938L1319.77 20.7321M1190.09 15.5494H1153.96M1292.87 23.4693L1303.83 26.3114M1292.87 23.4693H1331.02M1319.77 20.7321L1331.02 23.4693M1331.02 23.4693L1342.71 26.3114M1264.94 26.3114L1275.56 29.2647M1264.94 26.3114H1303.83M1264.94 26.3114H1226.05M1303.83 26.3114L1315.21 29.2647M1303.83 26.3114H1342.71M1342.71 26.3114L1354.86 29.2647M1275.56 29.2647H1315.21M1275.56 29.2647H1235.92M1327.05 32.3354L1315.21 29.2647M1327.05 32.3354L1339.37 35.5309M1327.05 32.3354H1367.49M1315.21 29.2647H1354.86M1235.92 29.2647H1196.27M1235.92 29.2647L1226.05 26.3114M1354.86 29.2647L1367.49 32.3354M1226.05 26.3114H1187.16M1339.37 35.5309L1352.2 38.8588M1339.37 35.5309H1380.63M1367.49 32.3354L1380.63 35.5309M1380.63 35.5309L1394.32 38.8588M1310.09 38.8588L1322.57 42.3278M1310.09 38.8588H1352.2M1310.09 38.8588H1267.98M1352.2 38.8588L1365.58 42.3278M1352.2 38.8588H1394.32M1394.32 38.8588L1408.58 42.3278M1394.32 38.8588H1436.43M1436.43 38.8588H1440.61M1436.43 38.8588L1440.61 39.8156M1322.57 42.3278H1365.58M1322.57 42.3278H1279.57M1379.53 45.9468L1365.58 42.3278M1379.53 45.9468L1394.1 49.7255M1379.53 45.9468H1423.47M1365.58 42.3278H1408.58M1279.57 42.3278H1236.56M1279.57 42.3278L1267.98 38.8588M1408.58 42.3278L1423.47 45.9468M1408.58 42.3278H1440.61M1267.98 38.8588H1225.86M1394.1 49.7255L1409.33 53.6755M1394.1 49.7255H1439.01M1423.47 45.9468L1439.01 49.7255M1423.47 45.9468H1440.61M1440.84 42.3278H1440.61M1439.01 49.7255L1440.61 50.1155M1439.01 49.7255H1440.61M1363.41 53.6755L1378.28 57.8081M1363.41 53.6755H1409.33M1363.41 53.6755H1317.49M1409.33 53.6755L1425.26 57.8081M1409.33 53.6755H1440.61M1441 50.2098L1440.61 50.1155M1378.28 57.8081H1425.26M1378.28 57.8081H1331.3M1425.26 57.8081H1440.61M1425.26 57.8081L1440.61 61.7886M1331.3 57.8081H1284.31M1331.3 57.8081L1317.49 53.6755M1317.49 53.6755H1271.57M1427.33 71.4386H1376.84M1427.33 71.4386L1440.61 75.1291M1427.33 71.4386H1440.61M1440.98 66.6746H1440.61M1376.84 71.4386H1326.36M1376.84 71.4386L1393.57 76.4452M1440.76 75.1697L1440.61 75.1291M1081.72 15.5494L1088.26 18.0938M1081.72 15.5494H1117.84M1081.72 15.5494H1045.6M1110.9 13.0938L1104.2 10.7226M1110.9 13.0938L1117.84 15.5494M1110.9 13.0938H1146.39M1104.2 10.7226H1139.08M1104.2 10.7226L1097.72 8.43167M1063.42 8.43167H1097.72M1063.42 8.43167L1061.27 7.59235L1057.73 6.21658M1063.42 8.43167H1029.13M1117.84 15.5494L1125.04 18.0938M1117.84 15.5494H1153.96M1146.39 13.0938L1139.08 10.7226M1146.39 13.0938L1153.96 15.5494M1139.08 10.7226L1132.01 8.43167M1097.72 8.43167H1132.01M1097.72 8.43167L1091.45 6.21658M1153.96 15.5494L1161.81 18.0938M1166.3 8.43167L1158.9 6.21658M1166.3 8.43167H1132.01M1132.01 8.43167L1131.14 8.1504L1129.42 7.59235L1125.18 6.21658M1088.26 18.0938H1125.04M1088.26 18.0938H1051.48M1132.5 20.7321L1125.04 18.0938M1132.5 20.7321L1140.24 23.4693M1132.5 20.7321H1169.95M1125.04 18.0938H1161.81M1051.48 18.0938H1014.71M1051.48 18.0938L1045.6 15.5494M1161.81 18.0938L1169.95 20.7321M1045.6 15.5494H1009.48M1140.24 23.4693L1148.27 26.3114M1140.24 23.4693H1178.39M1169.95 20.7321L1170.99 21.0684L1178.39 23.4693M1178.39 23.4693L1187.16 26.3114M1109.38 26.3114L1110.32 26.6746L1116.97 29.2647M1109.38 26.3114H1148.27M1109.38 26.3114H1070.5M1148.27 26.3114L1156.62 29.2647M1148.27 26.3114H1187.16M1187.16 26.3114L1196.27 29.2647M1116.97 29.2647H1156.62M1116.97 29.2647H1077.33M1165.3 32.3354L1156.62 29.2647M1165.3 32.3354L1174.34 35.5309M1165.3 32.3354H1205.74M1156.62 29.2647H1196.27M1077.33 29.2647H1037.68M1077.33 29.2647L1070.5 26.3114M1196.27 29.2647L1205.74 32.3354M1070.5 26.3114H1031.61M1174.34 35.5309L1183.75 38.8588M1174.34 35.5309H1215.6M1205.74 32.3354L1215.6 35.5309M1215.6 35.5309L1225.86 38.8588M1141.64 38.8588L1150.55 42.3278M1141.64 38.8588H1183.75M1141.64 38.8588H1099.52M1183.75 38.8588L1193.56 42.3278M1183.75 38.8588H1225.86M1225.86 38.8588L1236.56 42.3278M1150.55 42.3278H1193.56M1150.55 42.3278H1107.55M1203.79 45.9468L1193.56 42.3278M1203.79 45.9468L1214.47 49.7255M1203.79 45.9468H1247.72M1193.56 42.3278H1236.56M1107.55 42.3278H1064.54M1107.55 42.3278L1099.52 38.8588M1236.56 42.3278L1247.72 45.9468M1099.52 38.8588H1057.41M1214.47 49.7255L1225.64 53.6755M1214.47 49.7255H1259.38M1247.72 45.9468L1259.38 49.7255M1259.38 49.7255L1271.57 53.6755M1179.72 53.6755L1190.34 57.8081M1179.72 53.6755H1225.64M1179.72 53.6755H1133.8M1225.64 53.6755L1237.33 57.8081M1225.64 53.6755H1271.57M1271.57 53.6755L1284.31 57.8081M1190.34 57.8081H1237.33M1190.34 57.8081H1143.36M1249.57 62.1364L1237.33 57.8081M1249.57 62.1364L1262.4 66.6746M1249.57 62.1364H1297.66M1237.33 57.8081H1284.31M1143.36 57.8081H1096.37M1143.36 57.8081L1133.8 53.6755M1284.31 57.8081L1297.66 62.1364M1133.8 53.6755H1087.88M1262.4 66.6746L1275.87 71.4386M1262.4 66.6746H1311.66M1297.66 62.1364L1311.66 66.6746M1311.66 66.6746L1326.36 71.4386M1225.38 71.4386L1238.25 76.4452M1225.38 71.4386H1275.87M1225.38 71.4386H1174.89M1275.87 71.4386L1290.02 76.4452M1275.87 71.4386H1326.36M1326.36 71.4386L1341.8 76.4452M1238.25 76.4452H1290.02M1238.25 76.4452H1186.47M1304.92 81.7139L1290.02 76.4452M1304.92 81.7139L1320.62 87.2655M1304.92 81.7139H1358.05M1290.02 76.4452H1341.8M1186.47 76.4452H1134.7M1186.47 76.4452L1174.89 71.4386M1341.8 76.4452L1358.05 81.7139M1341.8 76.4452H1393.57M1174.89 71.4386H1124.4M1320.62 87.2655L1337.18 93.124M1320.62 87.2655H1375.17M1358.05 81.7139L1375.17 87.2655M1393.57 76.4452H1440.61M1375.17 87.2655L1393.24 93.124M1281.12 93.124L1297.03 99.3144M1281.12 93.124H1337.18M1281.12 93.124H1225.06M1337.18 93.124L1354.69 99.3144M1337.18 93.124H1393.24M1393.24 93.124L1412.34 99.3144M1393.24 93.124H1440.61M1297.03 99.3144H1354.69M1297.03 99.3144H1239.38M1373.21 105.867L1354.69 99.3144M1373.21 105.867L1392.85 112.814M1373.21 105.867H1432.55M1354.69 99.3144H1412.34M1239.38 99.3144H1181.73M1239.38 99.3144L1225.06 93.124M1412.34 99.3144L1432.55 105.867M1412.34 99.3144H1440.61M1225.06 93.124H1169M1392.85 112.814L1413.72 120.192M1392.85 112.814H1440.61M1432.55 105.867H1440.61M1432.55 105.867L1440.61 108.481M1350.7 120.192L1370.87 128.042M1350.7 120.192H1413.72M1350.7 120.192H1287.68M1413.72 120.192L1435.91 128.042M1413.72 120.192H1440.61M1370.87 128.042H1435.91M1370.87 128.042H1305.84M1435.91 128.042L1440.61 129.705M1435.91 128.042H1440.61M1305.84 128.042H1240.8M1305.84 128.042L1287.68 120.192M1287.68 120.192H1224.66M1439.99 154.93H1368.04M1439.99 154.93H1440.61M1439.99 154.93L1440.61 155.173M1368.04 154.93H1296.09M1368.04 154.93L1391.82 165.209M937.232 15.5494L938.687 16.4927L939.176 16.8102L941.156 18.0938M937.232 15.5494H973.354M937.232 15.5494H901.11M968.936 13.0938L965.722 11.3079L964.67 10.7226M968.936 13.0938L972.794 15.2376L973.354 15.5494M968.936 13.0938H1004.43M964.67 10.7226H999.551M964.67 10.7226L960.547 8.43167M926.255 8.43167H960.547M926.255 8.43167L924.96 7.59235L922.839 6.21658M926.255 8.43167H891.963M973.354 15.5494L974.484 16.1767L977.933 18.0938M973.354 15.5494H1009.48M1004.43 13.0938L999.551 10.7226M1004.43 13.0938L1009.48 15.5494M999.551 10.7226L996.002 8.99705L994.839 8.43167M960.547 8.43167H994.839M960.547 8.43167L956.562 6.21658M1009.48 15.5494L1014.71 18.0938M1029.13 8.43167L1028.48 8.1504L1024.01 6.21658M1029.13 8.43167H994.839M994.839 8.43167L993.113 7.59235L990.285 6.21658M941.156 18.0938H977.933M941.156 18.0938H904.38M982.679 20.7321L977.933 18.0938M982.679 20.7321L987.605 23.4693M982.679 20.7321H1020.13M977.933 18.0938H1014.71M904.38 18.0938H867.604M904.38 18.0938L901.11 15.5494M1014.71 18.0938L1020.13 20.7321M901.11 15.5494H864.988M987.605 23.4693L990.778 25.2332L991.422 25.5907L992.718 26.3114M987.605 23.4693H1025.76M1020.13 20.7321L1025.76 23.4693M1025.76 23.4693L1031.61 26.3114M953.83 26.3114L958.385 29.2647M953.83 26.3114H992.718M953.83 26.3114H914.942M992.718 26.3114L998.032 29.2647M992.718 26.3114H1031.61M1031.61 26.3114L1037.68 29.2647M958.385 29.2647H998.032M958.385 29.2647H918.737M1003.56 32.3354L1000.08 30.402L999.393 30.0209L998.032 29.2647M1003.56 32.3354L1009.31 35.5309M1003.56 32.3354H1043.99M998.032 29.2647H1037.68M918.737 29.2647H879.09M918.737 29.2647L914.942 26.3114M1037.68 29.2647L1043.99 32.3354M914.942 26.3114H876.053M1009.31 35.5309L1015.3 38.8588M1009.31 35.5309H1050.56M1043.99 32.3354L1050.56 35.5309M1050.56 35.5309L1057.41 38.8588M973.181 38.8588L975.829 40.5749L976.498 41.0099L978.531 42.3278M973.181 38.8588H1015.3M973.181 38.8588H931.068M1015.3 38.8588L1021.54 42.3278M1015.3 38.8588H1057.41M1057.41 38.8588L1064.54 42.3278M978.531 42.3278H1021.54M978.531 42.3278H935.526M1028.05 45.9468L1021.54 42.3278M1028.05 45.9468L1034.85 49.7255M1028.05 45.9468H1071.98M1021.54 42.3278H1064.54M935.526 42.3278H892.521M935.526 42.3278L934.394 41.4469L931.068 38.8588M1064.54 42.3278L1071.98 45.9468M931.068 38.8588H888.955M1034.85 49.7255L1041.95 53.6755M1034.85 49.7255H1079.75M1071.98 45.9468L1079.75 49.7255M1079.75 49.7255L1087.88 53.6755M996.032 53.6755L1002.41 57.8081M996.032 53.6755H1041.95M996.032 53.6755H950.11M1041.95 53.6755L1049.39 57.8081M1041.95 53.6755H1087.88M1087.88 53.6755L1096.37 57.8081M1002.41 57.8081H1049.39M1002.41 57.8081H955.422M1057.18 62.1364L1049.39 57.8081M1057.18 62.1364L1065.34 66.6746M1057.18 62.1364H1105.28M1049.39 57.8081H1096.37M955.422 57.8081H908.437M955.422 57.8081L950.11 53.6755M1096.37 57.8081L1105.28 62.1364M950.11 53.6755H904.189M1065.34 66.6746L1073.92 71.4386M1065.34 66.6746H1114.61M1105.28 62.1364L1114.61 66.6746M1114.61 66.6746L1124.4 71.4386M1023.43 71.4386L1031.15 76.4452M1023.43 71.4386H1073.92M1023.43 71.4386H972.94M1073.92 71.4386L1082.92 76.4452M1073.92 71.4386H1124.4M1124.4 71.4386L1134.7 76.4452M1031.15 76.4452H1082.92M1031.15 76.4452H979.374M1092.4 81.7139L1082.92 76.4452M1092.4 81.7139L1102.39 87.2655M1092.4 81.7139H1145.53M1082.92 76.4452H1134.7M979.374 76.4452H927.6M979.374 76.4452L972.94 71.4386M1134.7 76.4452L1145.53 81.7139M972.94 71.4386H922.452M1102.39 87.2655L1112.93 93.124M1102.39 87.2655H1156.95M1145.53 81.7139L1156.95 87.2655M1156.95 87.2655L1169 93.124M1056.87 93.124L1066.42 99.3144M1056.87 93.124H1112.93M1056.87 93.124H1000.81M1112.93 93.124L1124.07 99.3144M1112.93 93.124H1169M1169 93.124L1181.73 99.3144M1066.42 99.3144H1124.07M1066.42 99.3144H1008.77M1135.86 105.867L1124.07 99.3144M1135.86 105.867L1148.36 112.814M1135.86 105.867H1195.2M1124.07 99.3144H1181.73M1008.77 99.3144H951.113M1008.77 99.3144L1000.81 93.124M1181.73 99.3144L1195.2 105.867M1000.81 93.124H944.748M1148.36 112.814L1161.64 120.192M1148.36 112.814H1209.48M1195.2 105.867L1209.48 112.814M1209.48 112.814L1224.66 120.192M1098.62 120.192L1110.72 128.042M1098.62 120.192H1161.64M1098.62 120.192H1035.6M1161.64 120.192L1175.76 128.042M1161.64 120.192H1224.66M1224.66 120.192L1240.8 128.042M1110.72 128.042H1175.76M1110.72 128.042H1045.69M1190.82 136.412L1175.76 128.042M1190.82 136.412L1206.91 145.354M1190.82 136.412H1258.01M1175.76 128.042H1240.8M1045.69 128.042H980.65M1045.69 128.042L1035.6 120.192M1240.8 128.042L1258.01 136.412M1035.6 120.192H972.578M1206.91 145.354L1224.14 154.93M1206.91 145.354H1276.4M1258.01 136.412L1276.4 145.354M1276.4 145.354L1296.09 154.93M1152.19 154.93L1168.05 165.209M1152.19 154.93H1224.14M1152.19 154.93H1080.24M1224.14 154.93L1242.64 165.209M1224.14 154.93H1296.09M1296.09 154.93L1317.23 165.209M1168.05 165.209H1242.64M1168.05 165.209H1093.45M1262.54 176.272L1242.64 165.209M1262.54 176.272L1284.03 188.212M1262.54 176.272H1339.98M1242.64 165.209H1317.23M1093.45 165.209H1018.86M1093.45 165.209L1080.24 154.93M1317.23 165.209L1339.98 176.272M1317.23 165.209H1391.82M1080.24 154.93H1008.3M1284.03 188.212L1307.28 201.137M1284.03 188.212H1364.53M1339.98 176.272L1364.53 188.212M1391.82 165.209H1440.61M1364.53 188.212L1391.11 201.137M1364.53 188.212H1440.61M1223.46 201.137L1245.11 215.175M1223.46 201.137H1307.28M1223.46 201.137H1139.63M1307.28 201.137L1332.54 215.175M1307.28 201.137H1391.11M1391.11 201.137L1419.97 215.175M1391.11 201.137H1440.61M1245.11 215.175H1332.54M1245.11 215.175H1157.67M1360.07 230.476L1332.54 215.175M1360.07 230.476L1390.2 247.219M1360.07 230.476H1440.61M1332.54 215.175H1419.97M1157.67 215.175H1070.24M1157.67 215.175L1139.63 201.137M1419.97 215.175H1440.61M1419.97 215.175L1440.61 225.211M1139.63 201.137H1055.8M1390.2 247.219L1423.3 265.617M1390.2 247.219H1440.61M1322.9 265.617L1354.22 285.928M1322.9 265.617H1423.3M1322.9 265.617H1222.5M1423.3 265.617L1440.61 275.239M1423.3 265.617H1440.61M1354.22 285.928H1248.6M1354.22 285.928L1440.61 285.927M1248.6 285.928H1142.98M1248.6 285.928L1222.5 265.617M1222.5 265.617H1122.1M792.744 15.5494L792.905 15.8625L793.066 16.1767L793.229 16.4927L793.392 16.8102L793.886 17.7706L794.052 18.0938M792.744 15.5494H828.866M792.744 15.5494H756.622M826.972 13.0938L825.595 11.3079L825.144 10.7226M826.972 13.0938L828.149 14.6183L828.866 15.5494M826.972 13.0938H862.463M825.144 10.7226H860.026M825.144 10.7226L823.814 8.99705L823.377 8.43167M789.085 8.43167L788.941 8.1504L788.369 7.03837L787.946 6.21658M789.085 8.43167H823.377M789.085 8.43167H754.792M828.866 15.5494L829.107 15.8625L829.35 16.1767L829.593 16.4927L829.839 16.8102L830.828 18.0938M828.866 15.5494H864.988M862.463 13.0938L860.627 11.3079L860.026 10.7226M862.463 13.0938L864.988 15.5494M860.026 10.7226L858.837 9.56734L857.96 8.71376L857.67 8.43167M823.377 8.43167L823.161 8.1504L822.73 7.59235L822.303 7.03837L822.091 6.76322L821.669 6.21658M823.377 8.43167H857.67M864.988 15.5494L866.942 17.449L867.604 18.0938M891.963 8.43167L889.819 6.76322L889.116 6.21658M891.963 8.43167H857.67M857.67 8.43167L855.673 6.48929L855.392 6.21658M794.052 18.0938H830.828M794.052 18.0938H757.276M832.862 20.7321L830.828 18.0938M832.862 20.7321L834.973 23.4693M832.862 20.7321H870.316M830.828 18.0938H867.604M757.276 18.0938H720.5M757.276 18.0938L756.622 15.5494M867.604 18.0938L870.316 20.7321M756.622 15.5494H720.5M834.973 23.4693L835.514 24.1697L836.334 25.2332L837.165 26.3114M834.973 23.4693H873.132M870.316 20.7321L870.663 21.0684L873.132 23.4693M873.132 23.4693L873.49 23.8187L873.852 24.1697L874.214 24.5227L876.053 26.3114M798.277 26.3114L799.795 29.2647M798.277 26.3114H837.165M798.277 26.3114H759.388M837.165 26.3114L839.442 29.2647M837.165 26.3114H876.053M876.053 26.3114L878.319 28.5155L878.704 28.8893L879.09 29.2647M799.795 29.2647H839.442M799.795 29.2647H760.147M841.81 32.3354L842.113 32.728L842.417 33.1221L842.723 33.5188L844.274 35.5309M841.81 32.3354L840.615 30.7848L840.319 30.402L840.026 30.0209L839.442 29.2647M841.81 32.3354H882.247M839.442 29.2647H879.09M760.147 29.2647H720.5M760.147 29.2647L759.388 26.3114M879.09 29.2647L882.247 32.3354M759.388 26.3114H720.5M844.274 35.5309L846.514 38.4353L846.841 38.8588M844.274 35.5309H885.532M882.247 32.3354L883.056 33.1221L885.532 35.5309M885.532 35.5309L886.799 36.7627L888.955 38.8588M804.727 38.8588L805.61 40.5749L805.833 41.0099L806.511 42.3278M804.727 38.8588H846.841M804.727 38.8588H762.614M846.841 38.8588L849.516 42.3278M846.841 38.8588H888.955M888.955 38.8588L892.521 42.3278M806.511 42.3278H849.516M806.511 42.3278H763.505M852.306 45.9468L849.516 42.3278M852.306 45.9468L855.22 49.7255M852.306 45.9468H896.242M849.516 42.3278H892.521M763.505 42.3278H720.5M763.505 42.3278L763.279 41.4469L762.833 39.7124L762.614 38.8588M892.521 42.3278L896.242 45.9468M762.614 38.8588H720.5M855.22 49.7255L857.492 52.6715L858.266 53.6755M855.22 49.7255H900.127M896.242 45.9468L900.127 49.7255M900.127 49.7255L902.135 51.6785L904.189 53.6755M812.344 53.6755L814.469 57.8081M812.344 53.6755H858.266M812.344 53.6755H766.422M858.266 53.6755L861.453 57.8081M858.266 53.6755H904.189M904.189 53.6755L908.437 57.8081M814.469 57.8081H861.453M814.469 57.8081H767.484M864.791 62.1364L863.941 61.0354L861.453 57.8081M864.791 62.1364L868.29 66.6746M864.791 62.1364H912.888M861.453 57.8081H908.437M767.484 57.8081H720.5M767.484 57.8081L766.422 53.6755M908.437 57.8081L912.888 62.1364M766.422 53.6755H720.5M868.29 66.6746L871.964 71.4386M868.29 66.6746H917.553M912.888 62.1364L917.553 66.6746M917.553 66.6746L922.452 71.4386M821.476 71.4386L824.05 76.4452M821.476 71.4386H871.964M821.476 71.4386H770.988M871.964 71.4386L875.824 76.4452M871.964 71.4386H922.452M922.452 71.4386L927.6 76.4452M824.05 76.4452H875.824M824.05 76.4452H772.275M879.888 81.7139L875.824 76.4452M879.888 81.7139L884.169 87.2655M879.888 81.7139H933.016M875.824 76.4452H927.6M772.275 76.4452H720.5M772.275 76.4452L771.145 72.0509L770.988 71.4386M927.6 76.4452L933.016 81.7139M770.988 71.4386H720.5M884.169 87.2655L888.686 93.124M884.169 87.2655H938.725M933.016 81.7139L937.269 85.8502L938.725 87.2655M938.725 87.2655L944.748 93.124M832.624 93.124L835.806 99.3144M832.624 93.124H888.686M832.624 93.124H776.562M888.686 93.124L893.46 99.3144M888.686 93.124H944.748M944.748 93.124L951.113 99.3144M835.806 99.3144H893.46M835.806 99.3144H778.153M898.512 105.867L893.46 99.3144M898.512 105.867L903.869 112.814M898.512 105.867H957.85M893.46 99.3144H951.113M778.153 99.3144H720.5M778.153 99.3144L776.562 93.124M951.113 99.3144L957.85 105.867M776.562 93.124H720.5M903.869 112.814L909.559 120.192M903.869 112.814H964.992M957.85 105.867L964.992 112.814M964.992 112.814L972.578 120.192M846.539 120.192L850.575 128.042M846.539 120.192H909.559M846.539 120.192H783.52M909.559 120.192L915.612 128.042M909.559 120.192H972.578M972.578 120.192L980.65 128.042M850.575 128.042H915.612M850.575 128.042H785.537M922.066 136.412L915.612 128.042M922.066 136.412L928.962 145.354M922.066 136.412H989.255M915.612 128.042H980.65M785.537 128.042H720.5M785.537 128.042L783.52 120.192M980.65 128.042L989.255 136.412M783.52 120.192H720.5M928.962 145.354L936.346 154.93M928.962 145.354H998.449M989.255 136.412L998.449 145.354M998.449 145.354L1008.3 154.93M864.397 154.93L869.682 165.209M864.397 154.93H936.346M864.397 154.93H792.449M936.346 154.93L944.273 165.209M936.346 154.93H1008.3M1008.3 154.93L1018.86 165.209M869.682 165.209H944.273M869.682 165.209H795.091M952.804 176.272L944.273 165.209M952.804 176.272L962.011 188.212M952.804 176.272H1030.24M944.273 165.209H1018.86M795.091 165.209H720.5M795.091 165.209L792.449 154.93M1018.86 165.209L1030.24 176.272M792.449 154.93H720.5M962.011 188.212L971.978 201.137M962.011 188.212H1042.51M1030.24 176.272L1042.51 188.212M1042.51 188.212L1055.8 201.137M888.152 201.137L895.369 215.175M888.152 201.137H971.978M888.152 201.137H804.326M971.978 201.137L982.803 215.175M971.978 201.137H1055.8M1055.8 201.137L1070.24 215.175M895.369 215.175H982.803M895.369 215.175H807.934M994.602 230.476L982.803 215.175M994.602 230.476L1007.51 247.219M994.602 230.476H1085.97M982.803 215.175H1070.24M807.934 215.175H720.5M807.934 215.175L804.326 201.137M1070.24 215.175L1085.97 230.476M804.326 201.137H720.5M1007.51 247.219L1021.7 265.617M1007.51 247.219H1103.18M1085.97 230.476L1103.18 247.219M1103.18 247.219L1122.1 265.617M921.3 265.617L931.741 285.928M921.3 265.617H1021.7M921.3 265.617H820.9M1021.7 265.617L1037.36 285.928M1021.7 265.617H1122.1M1122.1 265.617L1142.98 285.928M1037.36 285.928H931.741M1037.36 285.928H1142.98M931.741 285.928H826.121M826.121 285.928H720.5M826.121 285.928L820.9 265.617M820.9 265.617H720.5M648.256 15.5494L648.095 15.8625L647.934 16.1767L647.771 16.4927L647.608 16.8102L647.28 17.449L647.114 17.7706L646.948 18.0938M648.256 15.5494H684.378M648.256 15.5494H612.134M685.009 13.0938L685.619 10.7226M685.009 13.0938L684.378 15.5494M685.009 13.0938H720.5M685.619 10.7226L685.693 10.4319L685.768 10.1425L685.842 9.85431L686.208 8.43167M685.619 10.7226H720.5M651.915 8.43167L652.059 8.1504L652.631 7.03837L653.054 6.21658M651.915 8.43167H686.208M651.915 8.43167H617.623M684.378 15.5494L684.297 15.8625L684.217 16.1767L684.135 16.4927L683.724 18.0938M684.378 15.5494H720.5M720.5 13.0938V10.7226M720.5 13.0938V15.5494M720.5 10.7226V8.43167M686.208 8.43167H720.5M686.208 8.43167L686.423 7.59235L686.495 7.31475L686.777 6.21658M720.5 15.5494V18.0938M754.792 8.43167L754.577 7.59235L754.505 7.31475L754.435 7.03837L754.363 6.76322L754.294 6.48929L754.223 6.21658M754.792 8.43167H720.5M720.5 8.43167V6.21658M646.948 18.0938H683.724M646.948 18.0938H610.172M683.046 20.7321L682.959 21.0684L682.873 21.4067L682.342 23.4693M683.046 20.7321L683.724 18.0938M683.046 20.7321H720.5M683.724 18.0938H720.5M610.172 18.0938H573.396M610.172 18.0938L610.669 17.449L610.916 17.129L611.161 16.8102L611.407 16.4927L611.65 16.1767L611.893 15.8625L612.134 15.5494M720.5 18.0938V20.7321M612.134 15.5494H576.012M682.342 23.4693L681.612 26.3114M682.342 23.4693H720.5M720.5 20.7321V23.4693M720.5 23.4693V26.3114M642.723 26.3114L641.205 29.2647M642.723 26.3114H681.612M642.723 26.3114H603.835M681.612 26.3114L680.853 29.2647M681.612 26.3114H720.5M720.5 26.3114V29.2647M641.205 29.2647H680.853M641.205 29.2647H601.558M680.063 32.3354L680.853 29.2647M680.063 32.3354L679.242 35.5309M680.063 32.3354H720.5M680.853 29.2647H720.5M601.558 29.2647H561.91M601.558 29.2647L603.835 26.3114M720.5 29.2647V32.3354M603.835 26.3114H564.947M679.242 35.5309L678.926 36.7627L678.604 38.0138L678.386 38.8588M679.242 35.5309H720.5M720.5 32.3354V35.5309M720.5 35.5309V38.8588M636.273 38.8588L635.39 40.5749L635.168 41.0099L634.489 42.3278M636.273 38.8588H678.386M636.273 38.8588H594.159M678.386 38.8588L678.167 39.7124L677.722 41.4469L677.495 42.3278M678.386 38.8588H720.5M720.5 38.8588V42.3278M634.489 42.3278H677.495M634.489 42.3278H591.484M676.565 45.9468L676.683 45.4857L677.495 42.3278M676.565 45.9468L675.594 49.7255M676.565 45.9468H720.5M677.495 42.3278H720.5M591.484 42.3278H548.479M591.484 42.3278L594.159 38.8588M720.5 42.3278V45.9468M594.159 38.8588H552.046M675.594 49.7255L674.578 53.6755M675.594 49.7255H720.5M720.5 45.9468V49.7255M720.5 49.7255V53.6755M628.656 53.6755L626.531 57.8081M628.656 53.6755H674.578M628.656 53.6755H582.734M674.578 53.6755L673.516 57.8081M674.578 53.6755H720.5M720.5 53.6755V57.8081M626.531 57.8081H673.516M626.531 57.8081H579.547M672.403 62.1364L673.516 57.8081M672.403 62.1364L671.237 66.6746M672.403 62.1364H720.5M673.516 57.8081H720.5M579.547 57.8081H532.563M579.547 57.8081L582.734 53.6755M720.5 57.8081V62.1364M582.734 53.6755H536.811M671.237 66.6746L670.012 71.4386M671.237 66.6746H720.5M720.5 62.1364V66.6746M720.5 66.6746V71.4386M619.524 71.4386L616.95 76.4452M619.524 71.4386H670.012M619.524 71.4386H569.036M670.012 71.4386L668.725 76.4452M670.012 71.4386H720.5M720.5 71.4386V76.4452M616.95 76.4452H668.725M616.95 76.4452H565.176M667.371 81.7139L668.725 76.4452M667.371 81.7139L665.944 87.2655M667.371 81.7139H720.5M668.725 76.4452H720.5M565.176 76.4452H513.4M565.176 76.4452L569.036 71.4386M720.5 76.4452V81.7139M569.036 71.4386H518.548M665.944 87.2655L664.438 93.124M665.944 87.2655H720.5M720.5 81.7139V87.2655M720.5 87.2655V93.124M608.376 93.124L605.194 99.3144M608.376 93.124H664.438M608.376 93.124H552.314M664.438 93.124L662.847 99.3144M664.438 93.124H720.5M720.5 93.124V99.3144M605.194 99.3144H662.847M605.194 99.3144H547.54M661.163 105.867L662.847 99.3144M661.163 105.867L659.377 112.814M661.163 105.867H720.5M662.847 99.3144H720.5M547.54 99.3144H489.887M547.54 99.3144L552.314 93.124M720.5 99.3144V105.867M552.314 93.124H496.252M659.377 112.814L657.48 120.192M659.377 112.814H720.5M720.5 105.867V112.814M720.5 112.814V120.192M594.461 120.192L590.425 128.042M594.461 120.192H657.48M594.461 120.192H531.441M657.48 120.192L655.463 128.042M657.48 120.192H720.5M720.5 120.192V128.042M590.425 128.042H655.463M590.425 128.042H525.388M653.311 136.412L655.463 128.042M653.311 136.412L651.013 145.354M653.311 136.412H720.5M655.463 128.042H720.5M525.388 128.042H460.35M525.388 128.042L531.441 120.192M720.5 128.042V136.412M531.441 120.192H468.422M651.013 145.354L648.551 154.93M651.013 145.354H720.5M720.5 136.412V145.354M720.5 145.354V154.93M576.603 154.93L571.318 165.209M576.603 154.93H648.551M576.603 154.93H504.654M648.551 154.93L645.909 165.209M648.551 154.93H720.5M720.5 154.93V165.209M571.318 165.209H645.909M571.318 165.209H496.727M643.065 176.272L645.909 165.209M643.065 176.272L639.997 188.212M643.065 176.272H720.5M645.909 165.209H720.5M496.727 165.209H422.137M496.727 165.209L504.654 154.93M720.5 165.209V176.272M504.654 154.93H432.705M639.997 188.212L636.674 201.137M639.997 188.212H720.5M720.5 176.272V188.212M720.5 188.212V201.137M552.848 201.137L545.631 215.175M552.848 201.137H636.674M552.848 201.137H469.022M636.674 201.137L633.066 215.175M636.674 201.137H720.5M720.5 201.137V215.175M545.631 215.175H633.066M545.631 215.175H458.197M629.133 230.476L633.066 215.175M629.133 230.476L624.829 247.219M629.133 230.476H720.5M633.066 215.175H720.5M458.197 215.175H370.763M458.197 215.175L469.022 201.137M720.5 215.175V230.476M469.022 201.137H385.196M624.829 247.219L620.1 265.617M624.829 247.219H720.5M720.5 230.476V247.219M720.5 247.219V265.617M519.701 265.617L509.259 285.928M519.701 265.617H620.1M519.701 265.617H419.3M620.1 265.617L614.879 285.928M620.1 265.617H720.5M720.5 265.617V285.928M614.879 285.928H509.259M614.879 285.928H720.5M509.259 285.928H403.638M403.638 285.928H298.017M403.638 285.928L419.3 265.617M419.3 265.617H318.9M503.768 15.5494L501.824 16.8102L499.844 18.0938M503.768 15.5494H539.89M503.768 15.5494H467.646M543.046 13.0938L546.093 10.7226M543.046 13.0938L539.89 15.5494M543.046 13.0938H578.537M546.093 10.7226H580.975M546.093 10.7226L548.311 8.99705L549.038 8.43167M514.745 8.43167H549.038M514.745 8.43167L516.04 7.59235L518.161 6.21658M514.745 8.43167H480.453M539.89 15.5494L536.62 18.0938M539.89 15.5494H576.012M578.537 13.0938L580.975 10.7226M578.537 13.0938L576.012 15.5494M580.975 10.7226L582.163 9.56734L583.04 8.71376L583.33 8.43167M549.038 8.43167H583.33M549.038 8.43167L551.181 6.76322L551.884 6.21658M576.012 15.5494L574.058 17.449L573.396 18.0938M617.623 8.43167L617.839 8.1504L618.27 7.59235L618.909 6.76322L619.331 6.21658M617.623 8.43167H583.33M583.33 8.43167L583.619 8.1504L584.193 7.59235L585.607 6.21658M499.844 18.0938H536.62M499.844 18.0938H463.067M533.229 20.7321L533.66 20.397L534.089 20.0631L535.784 18.744L536.62 18.0938M533.229 20.7321L530.603 22.7751L529.711 23.4693M533.229 20.7321H570.684M536.62 18.0938H573.396M463.067 18.0938H426.291M463.067 18.0938L466.516 16.1767L467.646 15.5494M573.396 18.0938L570.684 20.7321M467.646 15.5494H431.523M529.711 23.4693L529.262 23.8187L528.811 24.1697L527.445 25.2332L526.984 25.5907L526.058 26.3114M529.711 23.4693H567.869M570.684 20.7321L570.337 21.0684L567.869 23.4693M567.869 23.4693L567.51 23.8187L567.148 24.1697L566.786 24.5227L564.947 26.3114M487.17 26.3114L482.615 29.2647M487.17 26.3114H526.058M487.17 26.3114H448.282M526.058 26.3114L522.263 29.2647M526.058 26.3114H564.947M564.947 26.3114L561.91 29.2647M482.615 29.2647H522.263M482.615 29.2647H442.968M518.317 32.3354L522.263 29.2647M518.317 32.3354L514.21 35.5309M518.317 32.3354H558.753M522.263 29.2647H561.91M442.968 29.2647H403.321M442.968 29.2647L448.282 26.3114M561.91 29.2647L558.753 32.3354M448.282 26.3114H409.393M514.21 35.5309L509.932 38.8588M514.21 35.5309H555.468M558.753 32.3354L557.944 33.1221L555.468 35.5309M555.468 35.5309L554.201 36.7627L552.914 38.0138L552.046 38.8588M467.819 38.8588L465.172 40.5749L462.469 42.3278M467.819 38.8588H509.932M467.819 38.8588H425.705M509.932 38.8588L505.474 42.3278M509.932 38.8588H552.046M552.046 38.8588L548.479 42.3278M462.469 42.3278H505.474M462.469 42.3278H419.464M500.823 45.9468L505.474 42.3278M500.823 45.9468L495.966 49.7255M500.823 45.9468H544.758M505.474 42.3278H548.479M419.464 42.3278H376.458M419.464 42.3278L425.705 38.8588M548.479 42.3278L544.758 45.9468M425.705 38.8588H383.592M495.966 49.7255L494.718 50.6965L490.89 53.6755M495.966 49.7255H540.873M544.758 45.9468L540.873 49.7255M540.873 49.7255L540.375 50.2098L538.865 51.6785L536.811 53.6755M444.968 53.6755L438.594 57.8081M444.968 53.6755H490.89M444.968 53.6755H399.046M490.89 53.6755L485.578 57.8081M490.89 53.6755H536.811M536.811 53.6755L532.563 57.8081M438.594 57.8081H485.578M438.594 57.8081H391.61M480.016 62.1364L483.523 59.4077L485.578 57.8081M480.016 62.1364L474.183 66.6746M480.016 62.1364H528.112M485.578 57.8081H532.563M391.61 57.8081H344.625M391.61 57.8081L399.046 53.6755M532.563 57.8081L528.112 62.1364M399.046 53.6755H353.124M474.183 66.6746L468.06 71.4386M474.183 66.6746H523.447M528.112 62.1364L523.447 66.6746M523.447 66.6746L518.548 71.4386M417.572 71.4386L409.85 76.4452M417.572 71.4386H468.06M417.572 71.4386H367.085M468.06 71.4386L461.626 76.4452M468.06 71.4386H518.548M518.548 71.4386L513.4 76.4452M409.85 76.4452H461.626M409.85 76.4452H358.076M454.854 81.7139L461.626 76.4452M454.854 81.7139L447.719 87.2655M454.854 81.7139H507.984M461.626 76.4452H513.4M358.076 76.4452H306.301M358.076 76.4452L367.085 71.4386M513.4 76.4452L507.984 81.7139M367.085 71.4386H316.597M447.719 87.2655L440.19 93.124M447.719 87.2655H502.275M507.984 81.7139L502.275 87.2655M502.275 87.2655L496.252 93.124M384.128 93.124L374.581 99.3144M384.128 93.124H440.19M384.128 93.124H328.066M440.19 93.124L432.234 99.3144M440.19 93.124H496.252M496.252 93.124L489.887 99.3144M374.581 99.3144H432.234M374.581 99.3144H316.927M423.812 105.867L432.234 99.3144M423.812 105.867L414.884 112.814M423.812 105.867H483.15M432.234 99.3144H489.887M316.927 99.3144H259.274M316.927 99.3144L328.066 93.124M489.887 99.3144L483.15 105.867M328.066 93.124H272.004M414.884 112.814L405.402 120.192M414.884 112.814H476.008M483.15 105.867L476.008 112.814M476.008 112.814L468.422 120.192M342.383 120.192L330.276 128.042M342.383 120.192H405.402M342.383 120.192H279.363M405.402 120.192L395.313 128.042M405.402 120.192H468.422M468.422 120.192L460.35 128.042M330.276 128.042H395.313M330.276 128.042H265.238M384.556 136.412L395.313 128.042M384.556 136.412L373.063 145.354M384.556 136.412H451.745M395.313 128.042H460.35M265.238 128.042H200.201M265.238 128.042L279.363 120.192M460.35 128.042L451.745 136.412M279.363 120.192H216.343M373.063 145.354L360.757 154.93M373.063 145.354H442.551M451.745 136.412L442.551 145.354M442.551 145.354L432.705 154.93M288.808 154.93L272.955 165.209M288.808 154.93H360.757M288.808 154.93H216.859M360.757 154.93L347.546 165.209M360.757 154.93H432.705M432.705 154.93L422.137 165.209M272.955 165.209H347.546M272.955 165.209H198.364M333.327 176.272L347.546 165.209M333.327 176.272L317.982 188.212M333.327 176.272H410.762M347.546 165.209H422.137M198.364 165.209H123.773M198.364 165.209L216.859 154.93M422.137 165.209L410.762 176.272M216.859 154.93H144.91M317.982 188.212L301.37 201.137M317.982 188.212H398.485M410.762 176.272L398.485 188.212M398.485 188.212L385.196 201.137M217.544 201.137L195.894 215.175M217.544 201.137H301.37M217.544 201.137H133.718M301.37 201.137L283.328 215.175M301.37 201.137H385.196M385.196 201.137L370.763 215.175M195.894 215.175H283.328M195.894 215.175H108.459M263.663 230.476L283.328 215.175M263.663 230.476L242.145 247.219M263.663 230.476H355.03M283.328 215.175H370.763M108.459 215.175H21.025M108.459 215.175L133.718 201.137M370.763 215.175L355.03 230.476M133.718 201.137H49.8925M242.145 247.219L218.501 265.617M242.145 247.219H337.817M355.03 230.476L337.817 247.219M337.817 247.219L318.9 265.617M118.101 265.617L86.7758 285.928M118.101 265.617H218.501M118.101 265.617H17.7005M218.501 265.617L192.397 285.928M218.501 265.617H318.9M318.9 265.617L298.017 285.928M192.397 285.928H86.7758M192.397 285.928H298.017M86.7758 285.928L0.387815 285.927M17.7005 265.617L0.387815 275.239M17.7005 265.617H0.387815M359.28 15.5494L352.739 18.0938M359.28 15.5494H395.402M359.28 15.5494H323.158M401.082 13.0938L406.568 10.7226M401.082 13.0938L395.402 15.5494M401.082 13.0938H436.573M406.568 10.7226H441.449M406.568 10.7226L411.868 8.43167M377.575 8.43167H411.868M377.575 8.43167L379.733 7.59235L383.269 6.21658M377.575 8.43167H343.283M395.402 15.5494L389.515 18.0938M395.402 15.5494H431.523M436.573 13.0938L441.449 10.7226M436.573 13.0938L431.523 15.5494M441.449 10.7226L444.998 8.99705L446.161 8.43167M411.868 8.43167L412.518 8.1504L416.992 6.21658M411.868 8.43167H446.161M431.523 15.5494L426.291 18.0938M480.453 8.43167L484.438 6.21658M480.453 8.43167H446.161M446.161 8.43167L447.887 7.59235L450.715 6.21658M352.739 18.0938H389.515M352.739 18.0938H315.963M383.412 20.7321L389.515 18.0938M383.412 20.7321L377.08 23.4693M383.412 20.7321H420.867M389.515 18.0938H426.291M315.963 18.0938H279.188M315.963 18.0938L323.158 15.5494M426.291 18.0938L420.867 20.7321M323.158 15.5494H287.036M377.08 23.4693L375.459 24.1697L370.504 26.3114M377.08 23.4693H415.238M420.867 20.7321L415.238 23.4693M415.238 23.4693L409.393 26.3114M331.616 26.3114L330.684 26.6746L324.026 29.2647M331.616 26.3114H370.504M331.616 26.3114H292.728M370.504 26.3114L363.673 29.2647M370.504 26.3114H409.393M409.393 26.3114L408.647 26.6746L403.321 29.2647M324.026 29.2647H363.673M324.026 29.2647H284.378M356.57 32.3354L363.673 29.2647M356.57 32.3354L349.177 35.5309M356.57 32.3354H397.006M363.673 29.2647H403.321M284.378 29.2647H244.731M284.378 29.2647L292.728 26.3114M403.321 29.2647L397.006 32.3354M292.728 26.3114H253.84M349.177 35.5309L341.478 38.8588M349.177 35.5309H390.435M397.006 32.3354L390.435 35.5309M390.435 35.5309L383.592 38.8588M299.365 38.8588L290.448 42.3278M299.365 38.8588H341.478M299.365 38.8588H257.251M341.478 38.8588L333.453 42.3278M341.478 38.8588H383.592M383.592 38.8588L376.458 42.3278M290.448 42.3278H333.453M290.448 42.3278H247.443M325.081 45.9468L333.453 42.3278M325.081 45.9468L316.339 49.7255M325.081 45.9468H369.016M333.453 42.3278H376.458M247.443 42.3278H204.438M247.443 42.3278L257.251 38.8588M376.458 42.3278L369.016 45.9468M257.251 38.8588H215.137M316.339 49.7255L307.201 53.6755M316.339 49.7255H361.246M369.016 45.9468L361.246 49.7255M361.246 49.7255L353.124 53.6755M261.279 53.6755L250.657 57.8081M261.279 53.6755H307.201M261.279 53.6755H215.357M307.201 53.6755L297.641 57.8081M307.201 53.6755H353.124M353.124 53.6755L344.625 57.8081M250.657 57.8081H297.641M250.657 57.8081H203.672M287.628 62.1364L297.641 57.8081M287.628 62.1364L277.129 66.6746M287.628 62.1364H335.725M297.641 57.8081H344.625M203.672 57.8081H156.688M203.672 57.8081L215.357 53.6755M344.625 57.8081L335.725 62.1364M215.357 53.6755H169.435M277.129 66.6746L266.108 71.4386M277.129 66.6746H326.392M335.725 62.1364L326.392 66.6746M326.392 66.6746L316.597 71.4386M215.62 71.4386L202.751 76.4452M215.62 71.4386H266.108M215.62 71.4386H165.133M266.108 71.4386L254.526 76.4452M266.108 71.4386H316.597M316.597 71.4386L306.301 76.4452M202.751 76.4452H254.526M202.751 76.4452H150.976M242.337 81.7139L254.526 76.4452M242.337 81.7139L229.495 87.2655M242.337 81.7139H295.467M254.526 76.4452H306.301M150.976 76.4452H99.2015M150.976 76.4452L165.133 71.4386M306.301 76.4452L295.467 81.7139M165.133 71.4386H114.645M229.495 87.2655L215.942 93.124M229.495 87.2655H284.051M295.467 81.7139L284.051 87.2655M284.051 87.2655L272.004 93.124M159.88 93.124L143.968 99.3144M159.88 93.124H215.942M159.88 93.124H103.818M215.942 93.124L201.621 99.3144M215.942 93.124H272.004M272.004 93.124L259.274 99.3144M143.968 99.3144H201.621M143.968 99.3144H86.3145M186.463 105.867L201.621 99.3144M186.463 105.867L170.392 112.814M186.463 105.867H245.8M201.621 99.3144H259.274M86.3145 99.3144H28.6612M86.3145 99.3144L103.818 93.124M259.274 99.3144L245.8 105.867M103.818 93.124H47.7562M170.392 112.814L153.324 120.192M170.392 112.814H231.515M245.8 105.867L231.515 112.814M231.515 112.814L216.343 120.192M90.3043 120.192L70.1262 128.042M90.3043 120.192H153.324M90.3043 120.192H27.2848M153.324 120.192L135.164 128.042M153.324 120.192H216.343M216.343 120.192L200.201 128.042M70.1262 128.042H135.164M70.1262 128.042H5.0888M115.801 136.412L135.164 128.042M115.801 136.412L95.1141 145.354M115.801 136.412H182.99M135.164 128.042H200.201M5.0888 128.042L27.2848 120.192M5.0888 128.042H0.387815M5.0888 128.042L0.387815 129.705M200.201 128.042L182.99 136.412M27.2848 120.192H0.387815M95.1141 145.354L72.9616 154.93M95.1141 145.354H164.601M182.99 136.412L164.601 145.354M164.601 145.354L144.91 154.93M1.01266 154.93H72.9616M1.01266 154.93H0.387815M1.01266 154.93L0.387815 155.173M72.9616 154.93L49.1814 165.209M72.9616 154.93H144.91M144.91 154.93L123.773 165.209M23.5889 176.272L49.1814 165.209M23.5889 176.272H101.023M23.5889 176.272H0.387815M23.5889 176.272L0.387815 186.301M49.1814 165.209H123.773M49.1814 165.209H0.387815M123.773 165.209L101.023 176.272M101.023 176.272L76.4714 188.212M76.4714 188.212L49.8925 201.137M76.4714 188.212H0.387815M49.8925 201.137L21.025 215.175M49.8925 201.137H0.387815M21.025 215.175H0.387815M21.025 215.175L0.387815 225.211M214.791 15.5494L205.636 18.0938M214.791 15.5494H250.914M214.791 15.5494H178.67M259.119 13.0938L267.042 10.7226M259.119 13.0938L250.914 15.5494M259.119 13.0938H294.61M267.042 10.7226H301.924M267.042 10.7226L274.698 8.43167M240.406 8.43167H274.698M240.406 8.43167L248.376 6.21658M240.406 8.43167H206.113M250.914 15.5494L242.412 18.0938M250.914 15.5494H287.036M294.61 13.0938L301.924 10.7226M294.61 13.0938L287.036 15.5494M301.924 10.7226L308.99 8.43167M274.698 8.43167L275.636 8.1504L282.099 6.21658M274.698 8.43167H308.99M287.036 15.5494L279.188 18.0938M343.283 8.43167L349.545 6.21658M343.283 8.43167H308.99M308.99 8.43167L309.857 8.1504L315.822 6.21658M205.636 18.0938H242.412M205.636 18.0938H168.86M233.595 20.7321L242.412 18.0938M233.595 20.7321L224.448 23.4693M233.595 20.7321H271.05M242.412 18.0938H279.188M168.86 18.0938H132.084M168.86 18.0938L178.67 15.5494M279.188 18.0938L271.05 20.7321M178.67 15.5494H142.548M224.448 23.4693L214.951 26.3114M224.448 23.4693H262.606M271.05 20.7321L270.011 21.0684L262.606 23.4693M262.606 23.4693L253.84 26.3114M176.063 26.3114L165.436 29.2647M176.063 26.3114H214.951M176.063 26.3114H137.175M214.951 26.3114L205.083 29.2647M214.951 26.3114H253.84M253.84 26.3114L244.731 29.2647M165.436 29.2647H205.083M165.436 29.2647H125.789M194.823 32.3354L205.083 29.2647M194.823 32.3354L184.145 35.5309M194.823 32.3354H235.259M205.083 29.2647H244.731M125.789 29.2647H86.1412M125.789 29.2647L137.175 26.3114M244.731 29.2647L235.259 32.3354M137.175 26.3114H98.2863M184.145 35.5309L173.024 38.8588M184.145 35.5309H225.403M235.259 32.3354L225.403 35.5309M225.403 35.5309L215.137 38.8588M130.91 38.8588L118.427 42.3278M130.91 38.8588H173.024M130.91 38.8588H88.7966M173.024 38.8588L161.433 42.3278M173.024 38.8588H215.137M215.137 38.8588L204.438 42.3278M118.427 42.3278H161.433M118.427 42.3278H75.422M149.339 45.9468L161.433 42.3278M149.339 45.9468L136.712 49.7255M149.339 45.9468H193.275M161.433 42.3278H204.438M75.422 42.3278H32.4171M75.422 42.3278L88.7966 38.8588M204.438 42.3278L193.275 45.9468M88.7966 38.8588H46.6835M136.712 49.7255L123.513 53.6755M136.712 49.7255H181.618M193.275 45.9468L181.618 49.7255M181.618 49.7255L169.435 53.6755M77.5906 53.6755L62.7195 57.8081M77.5906 53.6755H123.513M77.5906 53.6755H31.6692M123.513 53.6755L109.704 57.8081M123.513 53.6755H169.435M169.435 53.6755L156.688 57.8081M62.7195 57.8081H109.704M95.2401 62.1364L109.704 57.8081M95.2401 62.1364L80.0757 66.6746M95.2401 62.1364H143.338M109.704 57.8081H156.688M156.688 57.8081L143.338 62.1364M31.6692 53.6755H0.387815M80.0757 66.6746L64.1568 71.4386M80.0757 66.6746H129.339M143.338 62.1364L129.339 66.6746M129.339 66.6746L114.645 71.4386M13.6686 71.4386H64.1568M13.6686 71.4386H0.387815M13.6686 71.4386L0.387815 75.1291M64.1568 71.4386L47.4261 76.4452M64.1568 71.4386H114.645M114.645 71.4386L99.2015 76.4452M29.8209 81.7139L47.4261 76.4452M29.8209 81.7139L11.2698 87.2655M29.8209 81.7139H82.9502M29.8209 81.7139H0.387815M47.4261 76.4452H99.2015M47.4261 76.4452H0.387815M99.2015 76.4452L82.9502 81.7139M0.241542 75.1697L0.387815 75.1291M11.2698 87.2655H65.8258M11.2698 87.2655H0.387815M11.2698 87.2655L0.387815 90.5221M82.9502 81.7139L65.8258 87.2655M65.8258 87.2655L47.7562 93.124M47.7562 93.124L28.6612 99.3144M47.7562 93.124H0.387815M8.45007 105.867L28.6612 99.3144M8.45007 105.867H0.387815M8.45007 105.867L0.387815 108.481M28.6612 99.3144H0.387815M70.304 15.5494L58.5316 18.0938M70.304 15.5494H106.426M70.304 15.5494H34.1813M117.156 13.0938L127.517 10.7226M117.156 13.0938L106.426 15.5494M117.156 13.0938H152.647M127.517 10.7226H162.398M127.517 10.7226L137.528 8.43167M103.236 8.43167H137.528M103.236 8.43167L113.484 6.21658M103.236 8.43167H68.9432M106.426 15.5494L95.3076 18.0938M106.426 15.5494H142.548M152.647 13.0938L162.398 10.7226M152.647 13.0938L142.548 15.5494M162.398 10.7226L171.82 8.43167M137.528 8.43167H171.82M137.528 8.43167L147.207 6.21658M142.548 15.5494L132.084 18.0938M206.113 8.43167L214.653 6.21658M206.113 8.43167H171.82M171.82 8.43167L180.93 6.21658M58.5316 18.0938H95.3076M58.5316 18.0938H21.7556M83.7791 20.7321L95.3076 18.0938M83.7791 20.7321L71.8177 23.4693M83.7791 20.7321H121.233M95.3076 18.0938H132.084M21.7556 18.0938L34.1813 15.5494M21.7556 18.0938H0.387815M132.084 18.0938L121.233 20.7321M34.1813 15.5494H0.387815M71.8177 23.4693L59.398 26.3114M71.8177 23.4693H109.975M121.233 20.7321L109.975 23.4693M109.975 23.4693L98.2863 26.3114M20.5097 26.3114L6.84632 29.2647M20.5097 26.3114H59.398M20.5097 26.3114H0.387815M59.398 26.3114L46.4938 29.2647M59.398 26.3114H98.2863M98.2863 26.3114L86.1412 29.2647M33.0757 32.3354L46.4938 29.2647M33.0757 32.3354L19.1122 35.5309M33.0757 32.3354H73.5122M33.0757 32.3354H0.387815M46.4938 29.2647H6.84632M46.4938 29.2647H86.1412M6.84632 29.2647L0.387815 30.6604M6.84632 29.2647H0.387815M86.1412 29.2647L73.5122 32.3354M19.1122 35.5309L4.56971 38.8588M19.1122 35.5309H60.3702M19.1122 35.5309H0.387815M73.5122 32.3354L60.3702 35.5309M60.3702 35.5309L46.6835 38.8588M4.56971 38.8588H46.6835M4.56971 38.8588L0.387815 39.8157M4.56971 38.8588H0.387815M46.6835 38.8588L32.4171 42.3278M17.5332 45.9468L32.4171 42.3278M17.5332 45.9468L1.99157 49.7255M17.5332 45.9468H0.387815M32.4171 42.3278H0.387815M0.162778 42.3278H0.387815M1.99157 49.7255H0.387815M1.99157 49.7255L0.387815 50.1155M0 50.2098L0.387815 50.1155M10.6832 13.0938L22.8726 10.7226M10.6832 13.0938H0.387815M10.6832 13.0938L0.387815 15.0963M22.8726 10.7226L34.6509 8.43167M22.8726 10.7226H0.387815M68.9432 8.43167L79.7607 6.21658M68.9432 8.43167H34.6509M34.6509 8.43167L46.0377 6.21658M34.6509 8.43167H0.387815M1192.62 6.21658H1226.35M1192.62 6.21658H1158.9M1218.09 4.07404L1220.13 4.60315L1226.35 6.21658M1218.09 4.07404H1251.26M1226.35 6.21658H1260.07M1251.26 4.07404L1253.43 4.60315L1254.53 4.86894L1260.07 6.21658M1260.07 6.21658H1293.79M1293.79 6.21658H1327.52M1158.9 6.21658H1125.18M1327.52 6.21658H1361.24M1361.24 6.21658L1350.77 4.07404M1361.24 6.21658H1394.96M1350.77 4.07404H1383.95M1057.73 6.21658H1091.45M1057.73 6.21658H1024.01M1085.4 4.07404L1086.89 4.60315L1087.64 4.86894L1091.45 6.21658M1085.4 4.07404H1118.57M1091.45 6.21658H1125.18M1118.57 4.07404L1125.18 6.21658M1024.01 6.21658H990.285M922.839 6.21658H956.562M922.839 6.21658H889.116M952.706 4.07404L953.182 4.33778L953.658 4.60315L954.137 4.86894L956.562 6.21658M952.706 4.07404H985.879M956.562 6.21658H990.285M985.879 4.07404L990.285 6.21658M889.116 6.21658H855.392M787.946 6.21658H821.669M787.946 6.21658H754.223M820.017 4.07404L821.669 6.21658M820.017 4.07404H853.19M821.669 6.21658H855.392M853.19 4.07404L853.461 4.33778L853.733 4.60315L854.007 4.86894L855.392 6.21658M754.223 6.21658H720.5M653.054 6.21658H686.777M653.054 6.21658H619.331M687.328 4.07404L686.777 6.21658M687.328 4.07404H720.5M686.777 6.21658H720.5M720.5 4.07404V6.21658M619.331 6.21658H585.607M518.161 6.21658H551.884M518.161 6.21658H484.438M554.638 4.07404L553.958 4.60315L552.581 5.67402L551.884 6.21658M554.638 4.07404H587.81M551.884 6.21658H585.607M587.81 4.07404L587.539 4.33778L587.267 4.60315L586.993 4.86894L585.607 6.21658M484.438 6.21658H450.715M383.269 6.21658H416.992M383.269 6.21658H349.545M421.949 4.07404L420.725 4.60315L420.109 4.86894L416.992 6.21658M421.949 4.07404H455.121M416.992 6.21658H450.715M455.121 4.07404L454.578 4.33778L450.715 6.21658M349.545 6.21658H315.822M248.376 6.21658H282.099M248.376 6.21658H214.653M289.259 4.07404L287.491 4.60315L286.602 4.86894L282.099 6.21658M289.259 4.07404H322.432M282.099 6.21658H315.822M322.432 4.07404L321.617 4.33778L315.822 6.21658M214.653 6.21658H180.93M113.484 6.21658H147.207M113.484 6.21658H79.7607M156.57 4.07404L147.207 6.21658M156.57 4.07404H189.742M147.207 6.21658H180.93M189.742 4.07404L187.567 4.60315L186.472 4.86894L180.93 6.21658M79.7607 6.21658H46.0377M23.8807 4.07404L12.3147 6.21658M23.8807 4.07404H57.0531M23.8807 4.07404H0.387815M12.3147 6.21658H46.0377M12.3147 6.21658L0.387815 8.42625M12.3147 6.21658H0.387815M57.0531 4.07404L54.3332 4.60315L46.0377 6.21658M1383.95 4.07404L1386.67 4.60315L1394.96 6.21658M1394.96 6.21658H1428.69M1428.69 6.21658L1440.61 8.42625M1428.69 6.21658H1440.61M1440.61 108.481V105.867M1440.61 108.481V112.814M1440.61 105.867V99.3144M1440.61 112.814V114.108V120.192M1440.61 120.192V128.042M1440.61 57.8081V53.6755M1440.61 57.8081V61.7886M1440.61 4.07404V6.21658M1440.61 6.21658V8.42625M1440.61 8.42625L1440.64 8.43167H1440.61M1440.61 8.42625V8.43167M1440.61 8.43167V10.7226M1440.61 10.7226V13.0938M1440.61 13.0938V15.0963M1440.61 15.0963V15.5494M1440.61 15.5494V18.0938M1440.61 18.0938V20.7321M1440.61 20.7321V22.4686M1440.61 22.4686V23.4693M1440.61 23.4693V26.3114M1440.61 26.3114V29.2647M1440.61 29.2647V30.6604M1440.61 30.6604V32.3354M1440.61 32.3354V35.5309M1440.61 35.5309V38.8588M1440.61 38.8588V39.8156M1440.61 39.8156V42.3278M1440.61 42.3278V45.9468M1440.61 45.9468V49.7255M1440.61 49.7255V50.1155M1440.61 50.1155V53.6755M1440.61 62.1364V66.6746M1440.61 62.1364V61.7886M1440.61 66.6746V71.4386M1440.61 71.4386V75.1291M1440.61 75.1291V76.4452M1440.61 76.4452V81.7139M1440.61 81.7139V87.2655M1440.61 87.2655V90.5221M1440.61 90.5221V93.124M1440.61 93.124V99.3144M1440.61 128.042V129.705M1440.61 129.705V136.412M1440.61 136.412V145.354M1440.61 145.354V154.93M1440.61 154.93V155.173M1440.61 155.173V165.209M1440.61 165.209V176.272M1440.61 176.272V186.301M1440.61 186.301V188.212M1440.61 188.212V201.137M1440.61 201.137V215.175M1440.61 215.175V225.211M1440.61 225.211V230.476M1440.61 230.476V247.219M1440.61 247.219V265.617M1440.61 265.617V275.239M1440.61 275.239V285.927M1440.61 285.927V286H0.387815V285.927M0.387815 62.1364V66.6746M0.387815 62.1364V61.7886M0.387815 61.7886V57.8081M0.387815 57.8081V53.6755M0.387815 53.6755V50.1155M0.387815 50.1155V49.7255M0.387815 49.7255V45.9468M0.387815 45.9468V42.3278M0.387815 42.3278V39.8157M0.387815 39.8157V38.8588M0.387815 38.8588V35.5309M0.387815 35.5309V32.3354M0.387815 32.3354V30.6604M0.387815 30.6604V29.2647M0.387815 29.2647V26.3114M0.387815 26.3114V23.4693M0.387815 23.4693V22.4686M0.387815 22.4686V20.7321M0.387815 20.7321V18.0938M0.387815 18.0938V15.5494M0.387815 15.5494V15.0963M0.387815 15.0963V13.0938M0.387815 13.0938V10.7226M0.387815 10.7226V8.43167M0.387815 8.43167H0.358559L0.387815 8.42625M0.387815 8.43167V8.42625M0.387815 8.42625V6.21658M0.387815 6.21658V4.07404M0.387815 285.927V275.239M0.387815 275.239V265.617M0.387815 265.617V247.219M0.387815 247.219V230.476M0.387815 230.476V225.211M0.387815 225.211V215.175M0.387815 215.175V201.137M0.387815 201.137V188.212M0.387815 188.212V186.301M0.387815 186.301V176.272M0.387815 176.272V165.209M0.387815 165.209V155.173M0.387815 155.173V154.93M0.387815 154.93V145.354M0.387815 145.354V136.412M0.387815 136.412V129.705M0.387815 129.705V128.042M0.387815 128.042V120.192M0.387815 120.192V112.814M0.387815 112.814V108.481M0.387815 108.481V105.867M0.387815 105.867V99.3144M0.387815 99.3144V93.124M0.387815 93.124V90.5221M0.387815 90.5221V87.2655M0.387815 87.2655V81.7139M0.387815 81.7139V76.4452M0.387815 76.4452V75.1291M0.387815 75.1291V71.4386M0.387815 71.4386V66.6746" stroke="url(#paint0_linear_1866_16)" stroke-opacity="0.14" stroke-width="3" stroke-miterlimit="10" stroke-linecap="round" stroke-linejoin="round"/>
<defs>
<linearGradient id="paint0_linear_1866_16" x1="720.51" y1="23.8909" x2="724.281" y2="287.33" gradientUnits="userSpaceOnUse">
<stop stop-color="#5D626F" stop-opacity="0"/>
<stop offset="0.0893723" stop-color="#5E616F"/>
<stop offset="1" stop-color="#605D6F" stop-opacity="0.35"/>
</linearGradient>
</defs>
</svg>
