<svg width="100" height="100" viewBox="0 0 100 100" fill="none" xmlns="http://www.w3.org/2000/svg">
<path d="M77.7314 99.9521L16.0468 95.8635C6.62525 95.3302 -0.663129 87.153 0.0479321 77.5536L3.95877 16.0468C4.49207 6.62525 12.6693 -0.663129 22.2686 0.0479321L83.9532 3.95877C93.3747 4.49207 100.663 12.6693 99.9521 22.2686L95.8635 83.7754C95.3302 93.3748 87.153 100.485 77.7314 99.9521Z" fill="#1A1832"/>
<path d="M19.2466 19.7799C21.7992 19.7799 23.8685 17.7106 23.8685 15.158C23.8685 12.6054 21.7992 10.5361 19.2466 10.5361C16.694 10.5361 14.6247 12.6054 14.6247 15.158C14.6247 17.7106 16.694 19.7799 19.2466 19.7799Z" fill="#E7D5E9"/>
<path d="M24.224 77.7314L21.0243 77.5537C19.9577 77.5537 19.0688 76.4871 19.0688 75.4205L19.2466 72.2207C19.2466 71.1541 18.3578 70.0875 17.2912 70.0875C16.2246 70.0875 15.158 70.9763 15.158 72.0429L14.9802 75.2427C14.9802 76.3093 13.9137 77.1981 12.8471 77.1981L9.64728 77.0204C8.58069 77.0204 7.5141 77.9092 7.5141 78.9758C7.5141 80.0424 8.40293 81.109 9.46952 81.109L12.6693 81.2867C13.7359 81.2867 14.6247 82.3533 14.6247 83.4199L14.4469 86.6197C14.4469 87.6863 15.3358 88.7529 16.4024 88.7529C17.469 88.7529 18.5356 87.8641 18.5356 86.7975L18.7133 83.5977C18.7133 82.5311 19.7799 81.6423 20.8465 81.6423L24.0463 81.82C25.1129 81.82 26.1795 80.9312 26.1795 79.8646C26.1795 78.798 25.2906 77.9092 24.224 77.7314Z" fill="#3E3F73"/>
<g opacity="0.75">
<path opacity="0.75" d="M78.9758 79.509C75.5982 79.509 72.9318 82.1755 72.9318 85.5531C72.9318 88.9306 75.5982 91.5971 78.9758 91.5971C82.3533 91.5971 85.0198 88.9306 85.0198 85.5531C85.0198 82.1755 82.3533 79.509 78.9758 79.509ZM78.9758 88.9306C77.0204 88.9306 75.5982 87.3307 75.5982 85.5531C75.5982 83.7754 77.1981 82.1755 78.9758 82.1755C80.7534 82.1755 82.3533 83.7754 82.3533 85.5531C82.3533 87.3307 80.9312 88.9306 78.9758 88.9306Z" fill="#E7D5E9"/>
</g>
<path d="M79.6868 72.9317C75.4204 74.3538 57.2883 83.0643 55.5107 84.6642C53.733 86.2641 56.044 88.7528 61.9102 85.553C66.1766 83.2421 82.531 72.0429 79.6868 72.9317Z" fill="#3E3F73"/>
<path d="M30.2681 19.9576L40.0452 29.7347L31.1569 35.4232C27.9571 37.3786 26.7128 41.2895 27.9571 44.8448C28.1349 45.5558 28.4904 46.0891 28.846 46.6224C29.2015 47.1557 29.7348 47.689 30.2681 48.0445C30.6236 48.2223 30.9791 48.5778 31.3347 48.7556L35.4233 51.4221C37.3787 52.6664 39.5119 53.1997 41.8228 53.1997C44.1338 53.1997 46.4447 52.4887 48.4001 51.2443L49.6445 50.5333C52.311 52.6664 55.6885 53.9108 59.2438 53.9108H59.4216C59.5994 53.9108 59.7771 53.9108 59.7771 53.9108C60.4882 54.6219 61.377 56.044 62.2658 56.755C63.8657 58.5327 66.71 60.3103 70.0875 61.5547C71.8652 62.088 73.1095 62.4435 74.1761 62.6213C75.4205 62.7991 76.3093 63.1546 77.3759 63.6879L77.5537 63.8657C77.5537 64.0434 77.7314 64.0434 77.7314 64.2212C78.087 64.9322 78.087 65.6433 77.9092 66.5321C77.7314 67.2432 77.1981 67.9543 76.4871 68.3098L55.8663 78.7979C54.7997 79.3312 53.7331 79.509 52.4887 79.509C52.1332 79.509 51.9554 79.509 51.5999 79.509C51.0666 79.509 50.3556 79.3312 49.8223 78.9757C49.289 78.7979 48.9334 78.6202 48.5779 78.2646C48.0446 77.9091 47.6891 77.5536 47.3335 77.1981L34.0011 62.9768C33.6456 62.6213 33.2901 62.088 33.1123 61.7325L30.2681 54.9774C30.0903 54.4441 29.7348 53.9108 29.2015 53.5553L25.2906 50.1777L24.0463 49.1111L22.9797 48.0445L19.4244 45.0225L30.2681 19.9576ZM30.2681 18.0022C29.7348 18.0022 29.2015 18.18 28.846 18.5355C28.6682 18.7133 28.4904 18.891 28.4904 19.0688L17.469 44.4892C17.2912 45.0225 17.2912 45.5558 17.6467 46.0891C17.6467 46.2669 17.8245 46.2669 18.0023 46.4447L21.7353 49.6444L22.9797 50.711L24.2241 51.7776L28.1349 55.1552C28.3127 55.3329 28.4904 55.6884 28.6682 55.8662L31.5124 62.6213C31.868 63.3324 32.2235 63.8657 32.7568 64.3989L46.0892 78.6202C46.6225 79.1535 47.1558 79.509 47.6891 79.8645C48.2224 80.2201 48.7557 80.5756 49.289 80.7534C50 81.1089 50.7111 81.2867 51.5999 81.2867C51.9554 81.2867 52.311 81.2867 52.6665 81.2867C54.0886 81.2867 55.5108 80.9311 56.7551 80.2201L77.3759 69.7319C79.8646 68.4876 80.7534 65.4655 79.5091 63.1546C79.5091 62.9768 79.3313 62.7991 79.1535 62.6213L78.6203 62.088C75.9538 60.4881 74.1761 60.8436 70.6208 59.5993C67.0655 58.3549 64.7546 56.5773 63.5102 55.3329C62.4436 54.0886 60.666 51.7776 60.666 51.7776V51.5998C60.1327 51.5998 59.7771 51.5998 59.2438 51.5998C55.6885 51.5998 52.4887 50.1777 50 47.689L47.3335 49.6444C45.5559 50.711 43.7782 51.2443 41.8228 51.2443C40.0452 51.2443 38.0898 50.711 36.4899 49.8222L32.2235 47.1557C32.0457 46.978 31.6902 46.8002 31.5124 46.6224C31.1569 46.2669 30.8014 45.9114 30.4458 45.5558C30.0903 45.2003 29.9125 44.667 29.7348 44.3115C28.846 41.645 29.7348 38.8007 32.0457 37.3786L42.5339 30.6235C42.7116 30.4458 42.8894 30.0902 42.7116 29.9125L31.6902 18.891C31.3347 18.18 30.8014 18.0022 30.2681 18.0022Z" fill="#E5D6E9"/>
<path d="M82.3534 51.4221L76.3093 21.7353C76.1316 20.8464 75.2427 20.1354 74.3539 20.1354C73.8206 20.1354 73.2873 20.3131 72.9318 20.6687L63.3325 30.8013C61.3771 34.1788 66.71 34.8899 65.8212 35.2454C64.7546 35.601 59.7772 33.29 55.6886 32.4012L52.8443 32.0457L49.289 31.6901C48.9335 31.6901 48.7557 31.6901 48.4002 31.6901C47.8669 31.6901 47.5114 31.6901 46.9781 31.8679C46.4448 32.0457 45.9115 32.2234 45.3782 32.4012C45.0226 32.5789 44.8449 32.7567 44.4893 32.9345L33.6457 39.6896C32.2235 40.5784 31.6902 42.356 32.4013 43.6004C33.2901 45.5558 36.3121 47.689 42.3562 45.3781C48.4002 43.0671 50.0001 42.7116 50.5334 43.9559C51.0667 45.2003 59.4216 49.1111 62.0881 48.4001C63.3325 48.0445 64.2213 49.1111 65.2879 50.711C66.5322 52.6664 68.1321 55.1551 70.2653 56.5773C74.1762 59.066 76.1316 59.066 76.8426 58.3549C79.5091 52.4887 82.7089 54.6219 82.3534 51.4221Z" fill="#E5D6E9"/>
<path d="M88.3974 13.0247L90.3528 18.5354L95.6857 20.4908L90.3528 22.4462L88.3974 27.7792L86.4419 22.4462L80.9312 20.4908L86.4419 18.5354L88.3974 13.0247Z" fill="#3E3F73"/>
<path d="M64.7546 8.93613C65.1101 9.64719 52.8443 20.1353 49.4667 21.3797C46.0892 22.6241 45.1445 20.5666 45.5 19.5C46.0333 18.4334 46.978 17.1133 50.1778 17.1133C53.3776 17.1133 64.399 8.22507 64.7546 8.93613Z" fill="#3E3F73"/>
<path d="M75.5982 68.8431C70.7985 70.9763 66.1766 66.8877 66.8877 69.0209C67.5988 70.9763 71.6874 71.1541 68.3098 72.5762C63.5102 74.5316 60.1326 70.7986 59.9548 72.0429C59.7771 73.6428 63.5102 74.7094 61.377 75.776C57.1106 77.9092 54.0886 73.9983 53.5553 75.4205C53.022 76.8426 57.4661 77.5536 56.3995 78.2647" fill="#E5D6E9"/>
<path d="M33.2901 41.8227C33.4679 40.4006 35.7788 38.9784 38.2675 39.1562C40.7563 39.1562 37.912 44.8447 36.1344 44.8447C34.1789 44.6669 33.1123 43.2448 33.2901 41.8227Z" fill="white"/>
<path d="M79.3313 63.1546C79.3313 62.9768 79.1536 62.7991 78.9758 62.6213L78.6203 62.088C75.9538 60.4881 74.1761 60.8436 70.6208 59.5993C67.0655 58.3549 64.7546 56.5773 63.5102 55.3329C62.4436 54.0886 60.666 51.7776 60.666 51.7776V51.5998C60.1327 51.5998 59.7771 51.5998 59.2438 51.5998C55.6885 51.5998 51.0666 48.0445 49.8223 47.689C44.3115 49.6444 40.934 51.4221 36.4899 49.4667L32.2235 46.8002C32.0457 46.6224 31.6902 46.4447 31.5124 46.2669C31.1569 45.9114 30.8014 45.5558 30.4458 45.2003C30.0903 44.8448 29.9125 44.3115 29.7348 43.9559C28.846 41.2895 29.7348 38.4452 32.0457 37.0231L42.5339 30.268C42.7117 30.0902 42.8894 29.7347 42.7117 29.5569L31.6902 18.5355C30.9791 17.8244 29.557 17.8244 28.846 18.5355C28.6682 18.7133 28.4904 18.891 28.4904 19.0688L17.469 44.4892C17.2912 45.0225 17.2912 45.5558 17.6467 46.0891C17.6467 46.2669 17.8245 46.2669 18.0023 46.4447L21.7353 49.6444L22.9797 50.711L24.2241 51.7776L28.1349 55.1552C28.3127 55.3329 28.4904 55.6884 28.6682 55.8662L31.5124 62.6213C31.868 63.3324 32.2235 63.8657 32.7568 64.3989L46.0892 78.6202C46.6225 79.1535 47.1558 79.509 47.6891 79.8645C48.2224 80.2201 48.7557 80.5756 49.289 80.7534C50 81.1089 50.7111 81.2867 51.5999 81.2867C51.9554 81.2867 52.311 81.2867 52.6665 81.2867C54.0886 81.2867 55.5108 80.9311 56.7551 80.2201L77.3759 69.7319C79.6868 68.6653 80.5757 65.6433 79.3313 63.1546ZM77.7314 66.3544C77.5537 67.0654 77.0204 67.7765 76.3093 68.132L55.6885 78.6202C54.6219 79.1535 53.5553 79.3312 52.311 79.3312C51.9554 79.3312 51.7777 79.3312 51.4222 79.3312C50.8889 79.3312 50.1778 79.1535 49.6445 78.7979C49.1112 78.6202 48.7557 78.4424 48.4001 78.0869C47.8668 77.7314 47.5113 77.3758 47.1558 77.0203L33.8234 62.7991C33.4679 62.4435 33.1123 61.9102 32.9346 61.5547L30.2681 55.1552C29.9125 54.2663 29.3792 53.5553 28.6682 53.022L25.1129 50L23.8685 48.9334L22.9797 48.0445L20.491 45.9114C19.9577 45.3781 19.7799 44.4892 19.9577 43.7782L29.2015 22.4463C29.7348 21.202 31.1569 21.0242 32.0457 21.913L38.2675 28.1348C39.1563 29.0236 38.9786 30.268 37.912 30.9791L30.0903 35.9565C29.2015 36.4898 28.4904 37.3786 28.1349 38.4452C27.0683 41.2895 27.2461 44.3115 28.846 46.6224C29.2015 47.1557 29.7348 47.689 30.2681 48.0445C30.6236 48.2223 30.9791 48.5778 31.3347 48.7556L35.4233 51.4221C37.3787 52.6664 39.5119 53.1997 41.8228 53.1997C43.6005 53.1997 47.1558 51.5998 48.7557 50.8888C49.289 50.711 49.8223 50.711 50.3556 50.8888C52.8443 52.3109 57.4662 53.3775 59.0661 53.5553C59.4216 53.5553 59.7771 53.9108 60.1327 54.0886C60.666 54.7996 61.5548 55.8662 62.0881 56.3995C63.688 58.1772 66.5322 59.9548 69.9098 61.1992C71.6874 61.7325 72.9318 62.088 73.9984 62.2658C75.2427 62.4435 76.1315 62.7991 77.1981 63.3324L77.3759 63.5101C77.3759 63.6879 77.5537 63.6879 77.5537 63.8657C77.9092 64.7545 78.087 65.6433 77.7314 66.3544Z" fill="#E5D6E9"/>
<path d="M24.7573 59.2438C24.9351 59.2438 24.9351 59.0661 25.1129 59.0661C25.4684 58.8883 25.6461 58.7105 25.4684 58.5328C24.224 56.2218 22.2686 54.0886 21.5575 54.0886C20.8465 54.0886 19.4244 55.1552 19.2466 55.333C17.2912 56.9329 17.1134 59.7771 18.5355 61.7325C20.1354 61.377 22.0908 60.4882 23.8685 59.7771C23.6907 59.4216 24.224 59.4216 24.7573 59.2438Z" fill="#E5D6E9"/>
<path d="M23.6907 67.7765C25.4684 67.421 27.7793 66.7099 29.557 65.9989C29.7347 65.6433 29.557 64.9323 28.6681 63.6879C27.4238 61.9103 26.535 61.0214 25.6461 60.6659C24.0462 61.377 21.7353 62.4435 19.6021 63.1546L23.6907 67.7765Z" fill="#E5D6E9"/>
<path d="M40.0451 77.7314C39.3341 76.8426 38.2675 76.4871 37.3786 76.3093C36.1343 77.3759 34.3566 77.9092 32.9345 78.4425C35.7788 81.2868 41.8228 82.5311 42.7116 81.82C43.7782 80.9312 41.645 79.5091 40.0451 77.7314Z" fill="#E5D6E9"/>
<path d="M34.1788 71.5096C33.29 70.443 32.4012 69.3764 31.5123 68.3098C31.1568 67.9543 30.8013 67.7765 30.268 67.7765C28.8459 68.3098 26.8904 69.0208 25.1128 69.3764L31.6901 76.8425C33.29 76.487 34.8899 75.9537 36.312 74.8871C36.6675 74.176 35.2454 72.7539 34.1788 71.5096Z" fill="#E5D6E9"/>
</svg>
