<svg width="1178" height="1178" viewBox="0 0 1178 1178" fill="none" xmlns="http://www.w3.org/2000/svg">
<path d="M1087.2 0V1177.92M1004.19 0V1177.92M921.107 0C921.107 0 921.107 121.721 921.107 286.831C921.027 305.204 920.947 324.151 920.859 343.426C920.779 362.209 919.138 381.074 916.682 400.759C907.655 484.422 887.154 563.983 898.637 648.466C906.839 711.623 919.963 771.499 920.859 834.328C920.947 853.686 921.027 872.548 921.107 890.92C921.107 1056.12 921.107 1177.76 921.107 1177.76M838.1 0C838.1 0 838.1 54.0525 838.1 139.11C838.1 167.407 838.1 199.231 838.1 233.517C838.756 280.269 832.195 324.561 821.536 371.314C798.566 466.46 754.274 555.043 779.701 654.289C804.308 752.716 841.221 844.58 838.1 944.399C838.1 978.768 838.1 1010.51 838.1 1038.81C838.1 1123.78 838.1 1177.92 838.1 1177.92M755.095 0C755.095 0 755.095 54.0525 755.095 139.11C753.864 170.36 750.502 209.894 750.502 243.278C746.072 337.685 714.904 424.628 694.398 519.773C664.87 655.11 735.409 772.401 748.533 901.995C749.353 912.662 750.994 924.145 750.502 934.644C750.502 968.021 753.864 1007.64 755.095 1038.81C755.095 1123.78 755.095 1177.92 755.095 1177.92M672.088 0C672.088 0 672.088 54.0525 672.088 139.11C671.104 157.892 670.694 174.871 670.366 191.932C668.151 313.898 644.365 432.83 632.882 555.043C629.601 591.132 632.062 626.402 636.163 662.492C650.106 771.581 667.331 877.389 670.366 986.066C670.694 1003.13 671.104 1020.11 672.088 1038.89C672.088 1123.86 672.088 1178 672.088 1178M589 0C589 0 589 54.0525 589 139.11C589 158.712 589 177.824 589 194.885C588.59 457.437 588.59 720.727 589 983.033C589 1000.09 589 1019.2 589 1038.81C589 1123.78 589 1177.92 589 1177.92M505.993 0C505.993 0 505.993 54.0525 505.993 139.11C506.978 157.892 507.387 174.871 507.715 191.932C509.93 313.898 533.717 432.83 545.2 555.043C548.481 591.132 546.02 626.402 541.919 662.492C527.975 771.581 510.751 877.389 507.715 986.066C507.387 1003.13 506.978 1020.11 505.993 1038.89C505.993 1123.86 505.993 1178 505.993 1178M422.988 0C422.988 0 422.988 54.0525 422.988 139.11C424.218 170.36 427.581 209.894 427.581 243.278C432.01 337.685 463.178 424.628 483.684 519.773C513.212 655.11 441.853 772.401 429.549 901.995C428.729 912.662 427.089 924.145 427.581 934.644C427.581 968.021 424.218 1007.64 422.988 1038.81C422.988 1123.78 422.988 1177.92 422.988 1177.92M339.981 0C339.981 0 339.981 54.0525 339.981 139.11C339.981 167.407 339.981 199.231 339.981 233.517C337.684 327.842 368.853 414.786 394.28 505.829C407.403 555.043 409.864 603.436 398.381 654.289C374.594 753.536 336.864 844.58 339.981 944.399C339.981 978.768 339.981 1010.51 339.981 1038.81C339.981 1123.78 339.981 1177.92 339.981 1177.92M256.893 0C256.893 0 256.893 121.721 256.893 286.831C256.974 305.204 257.057 324.151 257.138 343.426C258.041 411.422 274.446 477.86 281.007 545.939C284.288 580.388 283.468 614.017 279.367 648.466C271.165 711.623 258.041 771.499 257.138 834.328C257.057 853.686 256.974 872.548 256.893 890.92C256.893 1056.12 256.893 1177.76 256.893 1177.76M173.887 0V1177.92M90.8804 0V1177.92M1178 1087.12H0.0819194M1178 1004.11H0.0819194M1178 921.025C1178 921.025 1056.28 921.025 891.171 921.025C872.798 920.945 853.849 920.865 834.572 920.777C777.322 919.96 721.547 908.477 663.312 900.275C623.942 894.529 585.392 893.713 546.021 896.994C477.942 903.556 411.505 919.96 343.59 920.777C324.233 920.865 305.368 920.945 286.995 921.025C121.803 921.025 0.164268 921.025 0.164268 921.025M1178 838.018C1178 838.018 1123.95 838.018 1038.89 838.018C1010.59 838.018 978.77 838.018 944.481 838.018C842.942 841.219 751.075 802.667 651.009 778.881C602.616 768.218 556.684 770.678 509.111 782.982C416.426 807.588 328.662 840.395 233.681 838.018C199.314 838.018 167.571 838.018 139.273 838.018C54.2988 838.018 0.164268 838.018 0.164268 838.018M1178 755.013C1178 755.013 1123.95 755.013 1038.89 755.013C1007.64 753.782 968.104 750.419 934.727 750.419C838.02 746.072 749.435 713.263 651.009 692.757C527.156 668.152 421.347 728.847 303.235 744.431C282.73 746.892 263.865 750.993 243.442 750.419C210.059 750.419 170.442 753.782 139.273 755.013C54.2988 755.013 0.164268 755.013 0.164268 755.013M1178 672.006C1178 672.006 1123.95 672.006 1038.89 672.006C1020.11 671.022 1003.13 670.612 986.068 670.284C880.592 667.413 778.061 651.829 671.432 637.065C615.657 629.683 562.343 629.683 506.568 637.065C399.94 651.829 297.412 667.413 191.931 670.284C174.871 670.612 157.893 671.022 139.109 672.006C54.1345 672.006 0 672.006 0 672.006M1178 588.918C1178 588.918 1123.95 588.918 1038.89 588.918C1019.29 588.918 1000.18 588.918 983.115 588.918C720.645 588.59 457.355 588.59 194.967 588.918C177.906 588.918 158.794 588.918 139.191 588.918C54.1344 588.918 0.0819194 588.918 0.0819194 588.918M1178 505.912C1178 505.912 1123.95 505.912 1038.89 505.912C1020.11 506.896 1003.13 507.306 986.068 507.634C877.311 509.93 772.319 527.975 662.41 541.919C620.578 547.661 579.567 548.481 537.736 544.38C421.265 531.256 308.075 509.93 191.931 507.634C174.871 507.306 157.893 506.896 139.109 505.912C54.1345 505.912 0 505.912 0 505.912M1178 422.905C1178 422.905 1123.95 422.905 1038.89 422.905C1007.64 424.136 968.104 427.499 934.727 427.499C840.477 433.651 753.536 462.358 658.391 483.683C610.818 493.526 567.347 493.526 519.774 483.683C424.628 462.358 337.685 433.651 243.442 427.499C210.059 427.499 170.442 424.136 139.273 422.905C54.2988 422.905 0.164268 422.905 0.164268 422.905M1178 339.899C1178 339.899 1123.95 339.899 1038.89 339.899C1010.59 339.899 978.77 339.899 944.481 339.899C849.504 337.685 761.738 369.673 669.054 395.1C615.74 409.044 562.425 409.044 509.111 395.1C416.426 369.673 328.662 337.685 233.681 339.899C199.314 339.899 167.571 339.899 139.273 339.899C54.2988 339.899 0.164268 339.899 0.164268 339.899M1178 256.811C1178 256.811 1056.28 256.811 891.171 256.811C872.798 256.893 853.849 256.975 834.572 257.057C824.897 256.4 814.232 258.041 804.39 258.041C714.986 265.423 628.863 290.03 537.819 280.187C472.201 272.805 409.044 258.041 343.59 257.057C324.233 256.975 305.368 256.893 286.995 256.811C121.803 256.811 0.164268 256.811 0.164268 256.811M1178 173.805H0.0819194M1178 90.7983H0.0819194" stroke="url(#paint0_linear_721_41)" stroke-opacity="0.24" stroke-miterlimit="10"/>
<defs>
<linearGradient id="paint0_linear_721_41" x1="589.008" y1="90.8007" x2="667.967" y2="1178" gradientUnits="userSpaceOnUse">
<stop stop-color="#5D626F" stop-opacity="0"/>
<stop offset="0.0893723" stop-color="#5E616F"/>
<stop offset="1" stop-color="#605D6F" stop-opacity="0.35"/>
</linearGradient>
</defs>
</svg>
